<svg xmlns="http://www.w3.org/2000/svg" viewBox="0 0 143.06 149.97"><defs><style>.cls-1{fill:#dc8b40;}.cls-2{fill:#231815;}.cls-3{font-size:16.49px;fill:#fff;font-family:MicrosoftJhengHeiBold, Microsoft JhengHei;}</style></defs><g id="圖層_2" data-name="圖層 2"><g id="圖層_1-2" data-name="圖層 1"><path class="cls-1" d="M129.07,103c-.86-12.33-6-32.78-11.81-38.49s-8.76-14-8.76-14c4.27-10.37-.74-16.34-1.21-17.11s-3-3.38-4.28-3.6-5.13-.31-5.13-.31c-1.81-.9-2.25-1.1-2.25-1.1A13.65,13.65,0,0,0,87,26.93c-2-2.87-3.63-8.08-6.35-6.7s-1.21,11-1.21,11-8.39,7.07-9.58,7.33-16.09-1.68-16.83-1.41-5.88-.18-2,5.33,15.08,14,15.08,14,5.62,6,9.21,7.54c1.64.69.69,13.17-.29,18.12-.78,4-2,6.66-2.71,9.63-.7-6.6-3.24-15.78-11.26-22.65A62.85,62.85,0,0,0,49.55,62c-.46,0-3.13-.55-3.89,1.34a3.57,3.57,0,0,0,1.65,4.18c1,.5,6.84,3.47,9.85,6,6.63,5.69,8.69,13.48,9.24,19a36.74,36.74,0,0,1-2.24,17.21,16.27,16.27,0,0,0,.3,13.67,21.21,21.21,0,0,0,13.33,11.06,27.61,27.61,0,0,0,6.49,1c2.54,2.13,9,5.92,21.64,4.22,2.46,1,5.28,3,7.14,2.07,0,0,1.59,1.67,3.67-1.33,0,0,1.79-3-.61-4.65a16,16,0,0,0,3.24-2.86,14.62,14.62,0,0,1,3.92,10.61c-.22,2.79,1.54,5.4,3.32,5.67.23.78,5,1.94,5.87-3.66.64-.72,1-6.73-1-6.9.46-1.76-4.28-10.21-7-13a6.06,6.06,0,0,0,1.9-1.81s5.25,12,6.55,11.37c.57,1.17,5.69,4.34,6.83,2.18.71,1,4.34-1.94,3.05-3,1.41-2.19-2.29-6.85-4.23-6.41-2.94.67-4.37-4.25-6.33-11s-2.78-9.3-3.11-14M69.84,121a10.47,10.47,0,0,1-.23-8.75A36.5,36.5,0,0,0,72.09,103c.91,5.22,3.1,12.37,7.47,23.15l1.29,3c-.47-.1-.95-.22-1.42-.36A15.22,15.22,0,0,1,69.84,121"/><ellipse class="cls-2" cx="25" cy="20" rx="25" ry="20"/><text class="cls-3" transform="matrix(0.96, -0.28, 0.28, 0.96, 15.54, 28.97)">喵~</text><path class="cls-2" d="M40.12,35.93s6.2-2,8.12,0c0,0,1.36-1.65-1.82-5.61h-6.3Z"/></g></g></svg>