<svg xmlns="http://www.w3.org/2000/svg" viewBox="0 0 100 100"><defs><style>.cls-1{fill:#e4b625;}</style></defs><g id="圖層_2" data-name="圖層 2"><g id="圖層_1-2" data-name="圖層 1"><path d="M0,50a50,50,0,1,1,50,50A50,50,0,0,1,0,50"/><path class="cls-1" d="M39.56,51.33a4.09,4.09,0,0,1-4.07-4.07c0-5.32,0-10.65,0-16a4.22,4.22,0,0,1,8.43.23,4.12,4.12,0,0,1-.32,2,3.12,3.12,0,0,1-2.81,1.81,1.49,1.49,0,0,1-1.5-1,1.43,1.43,0,0,1,.32-1.67s.11-.06.21-.12L38.53,31.4a3,3,0,0,0-1.06,2,3.31,3.31,0,0,0,4,3.55,5.25,5.25,0,0,0,3.41-2.28.62.62,0,0,1,.45-.21c3.67,0,7.35,0,11,0a4.32,4.32,0,0,0,3.33-1.27,2.51,2.51,0,0,0,.72-1.81c0-1.5,0-3,0-4.49v-.27h7.84a4.1,4.1,0,0,1,.37,8.19c-1.31,0-2.62,0-3.93,0-.37,0-.46.11-.45.47,0,3.94,0,7.89,0,11.84a4.15,4.15,0,0,1-3.39,4.15,4,4,0,0,1-4.53-2.6,5,5,0,0,1-.29-1.59c0-1.36,0-2.72,0-4.08V42.7l-.28,0c-4,0-8.09,0-12.13,0a4.63,4.63,0,0,0-3,.91,2.72,2.72,0,0,0-1.1,2.24c0,1.7,0,3.39,0,5.09ZM65.62,31.59a1.72,1.72,0,0,0,1.66-1.69,1.78,1.78,0,0,0-1.79-1.76A1.8,1.8,0,0,0,63.84,30a1.76,1.76,0,0,0,1.78,1.64"/><path class="cls-1" d="M72.79,68.6v.63l3.67,0c.6,0,1,.33,1,.84s-.35.84-1,.84H72.8v.63h3.64a.87.87,0,1,1,0,1.73H72a.88.88,0,0,1-.9-.89c0-1.51,0-3,0-4.53,0-.67.31-1,1-1,1.51,0,3,0,4.53,0a.81.81,0,0,1,.81.54.72.72,0,0,1-.21.88,1.34,1.34,0,0,1-.7.24c-1.08,0-2.15,0-3.23,0h-.45"/><path class="cls-1" d="M45.55,71.57h2.91a2.77,2.77,0,0,1,.41,0,.86.86,0,1,1-.09,1.71H44.29a.84.84,0,0,1-.93-.92c0-1.53,0-3.07,0-4.6a.8.8,0,0,1,.85-.84c1.54,0,3.09,0,4.64,0a.83.83,0,0,1,.86.83.84.84,0,0,1-.88.85q-1.73,0-3.45,0c-.27,0-.34.09-.34.34s.11.31.34.31c1.15,0,2.3,0,3.45,0a.8.8,0,0,1,.8.49.72.72,0,0,1-.14.89,1.17,1.17,0,0,1-.68.28c-1.08,0-2.15,0-3.23,0-.47,0-.53.06-.53.35s.2.29.51.29"/><path class="cls-1" d="M40.43,69.14V72.5a.83.83,0,0,1-.85.88.82.82,0,0,1-.83-.86V69.1c0-.23,0-.4-.32-.4s-.35.16-.35.41c0,1.13,0,2.26,0,3.38a.8.8,0,0,1-.62.86.77.77,0,0,1-.92-.38,1,1,0,0,1-.12-.49c0-1.51,0-3,0-4.53a.83.83,0,0,1,.92-.93h4.53a.86.86,0,0,1,.91.91c0,1.48,0,3,0,4.45a.9.9,0,0,1-.48.9.83.83,0,0,1-.88-.06.94.94,0,0,1-.37-.85V69.18c0-.35-.1-.44-.32-.44s-.31.21-.31.4"/><path class="cls-1" d="M62.54,58.66l2.68-2.57a.69.69,0,0,1,.39-.17,10.27,10.27,0,0,1,1.11,0,.5.5,0,0,1,.33.12l2.74,2.64h-.55c0,.66,0,1.3,0,1.94s-.16.65-.67.66l-.47,0,.32.57c.44-.49,1-.18,1.52-.29-.2.38-.36.7-.54,1a.44.44,0,0,0,.09.67,1.19,1.19,0,0,1,.2.25c-.62,0-1.2,0-1.77,0a.43.43,0,0,1-.29-.19c-.4-.56-.8-1.12-1.18-1.71a.54.54,0,0,0-.51-.32c-1,0-1,0-1,1,0,.81,0,.81.81.81h.36c0,.13,0,.25,0,.4-.89,0-1.76,0-2.62,0-.13,0-.35-.3-.36-.47,0-1.31,0-2.62,0-3.93a1.84,1.84,0,0,1,.09-.38l-.67,0m3.71,1.06h0c.32,0,.64,0,1,0,.11,0,.29-.11.3-.19s0-.48-.25-.49c-.68,0-1.36,0-2,0-.26,0-.29.22-.3.43s.14.28.33.28h1m-1.32,1.14H67c.49,0,.64-.23.46-.7H64.93Zm1.22-3.62-1.37,1.3c.42.17.58,0,.6-.36h1.54c.12.46.13.47.62.35-.46-.44-.92-.86-1.39-1.29"/><path class="cls-1" d="M59.11,70.81a.29.29,0,0,0-.28.28v1.25a.79.79,0,0,1-.77.83.75.75,0,0,1-.83-.79c0-1.59,0-3.19,0-4.78a.79.79,0,0,1,.85-.79q2.28,0,4.56,0a.88.88,0,0,1,.94,1c0,1.49,0,3,0,4.48a.82.82,0,1,1-1.64,0c0-.39,0-.79,0-1.18,0-.11-.12-.29-.18-.29H59.11m-.26-1.75a.13.13,0,0,0,.12.12c.43,0,2,0,2.75,0,.29,0,.21-.22.21-.37s0-.36-.23-.36H59.06c-.15,0-.21.06-.21.21Z"/><path class="cls-1" d="M53.43,73.24H51.2a.85.85,0,0,1-.93-.92q0-2.26,0-4.53a.86.86,0,0,1,.91-.91h4.53a.85.85,0,1,1,0,1.69c-1.09,0-2.17,0-3.26,0-.35,0-.48.08-.47.45,0,.74,0,1.49,0,2.23,0,.26.1.31.32.31h3.34c.61,0,1,.34,1,.87s-.38.82-1,.83H53.43"/><path class="cls-1" d="M24.25,70.92c0,.47,0,.91,0,1.35a.85.85,0,0,1-.85,1c-.52,0-.83-.37-.83-1V67.84c0-.6.32-1,.82-1a.87.87,0,0,1,.86,1c0,.43,0,.86,0,1.31h3c0-.51,0-1,0-1.52a.83.83,0,0,1,1.66.08c0,1.55,0,3.11,0,4.67a.79.79,0,0,1-.86.82.81.81,0,0,1-.81-.87c0-.47,0-.93,0-1.43Z"/><path class="cls-1" d="M67.31,66.87H69.6a.81.81,0,0,1,.9.78.83.83,0,0,1-.9.83c-1.15,0-2.3,0-3.45,0-.27,0-.4.06-.4.37s.12.4.41.39c1.12,0,2.23,0,3.34,0,.63,0,1,.29,1,.8s-.38.81-1,.81c-1.11,0-2.23,0-3.34,0-.29,0-.39.08-.38.37s0,.77,0,1.16a.8.8,0,0,1-.83.84.82.82,0,0,1-.78-.9V67.78c0-.64.27-.91.93-.91Z"/><path class="cls-1" d="M56.37,55.89c-.07.38-.13.72-.21,1.13.46,0,.88,0,1.29,0s.55.14.44.56c-.32,1.19-.67,2.37-1,3.56a.83.83,0,0,0,0,.54c.28.56.6,1.11.9,1.66a1,1,0,0,1,0,.16,10,10,0,0,1-1.35,0c-.18,0-.33-.26-.53-.43-.15.65-.69.42-1.14.45H54.3c.27-.57.53-1.11.8-1.65a.54.54,0,0,0,0-.61c-.15-.21-.24-.46-.38-.67a1.87,1.87,0,0,1-.31-1.74,10.82,10.82,0,0,0,.24-1.33l-.34-.07V57c.84,0,.36-.81.72-1.15Zm-.56,3.77H56c.14-.66.29-1.31.42-2,0-.06-.1-.17-.18-.21s-.18.09-.19.15c-.12.53-.23,1.06-.32,1.6a1.44,1.44,0,0,0,.09.43"/><path class="cls-1" d="M60.75,59.43h1.1c0,.14,0,.26,0,.41H60.77v.39c0,.88,0,1.76,0,2.64,0,.45-.17.63-.62.63H58.3c0-.15,0-.27,0-.42a1,1,0,0,0,.39,0c.12-.06.29-.19.3-.29,0-1,0-1.93,0-2.93H57.85c0-.14,0-.25,0-.42.32,0,.62,0,.93,0,.1,0,.25-.07.28-.15.27-.75.52-1.51.79-2.27.17-.47.16-.5-.33-.5H58.08v-.42c1.13,0,2.24,0,3.35,0,.3,0,.42.26.31.56-.29.75-.58,1.5-.85,2.26a4.6,4.6,0,0,0-.14.52"/><path class="cls-1" d="M36.85,59.16c-.13.38-.24.69-.38,1.07h.89c0,.15,0,.26,0,.44H36.26c-.24,0-.49,0-.74,0-1,0-.78-.2-.81.85,0,.23.09.3.31.29h2.57v.4H36.38c-.44,0-.89,0-1.33,0-.27,0-.35.11-.34.35s0,.59,0,.92H32.92V62.22H30c0-.14,0-.25,0-.41h2.16c.76,0,.76,0,.76-.77v-.37H30.3c0-.15,0-.27,0-.43h.89l-.37-1.09c.59,0,1.15,0,1.71,0,.07,0,.15.17.19.28.33.8.32.8,1.19.8s.78,0,1-.74a.45.45,0,0,1,.51-.36c.45,0,.91,0,1.42,0"/><path class="cls-1" d="M43.49,63.5h-1.6c-.43,0-.6-.17-.61-.61V60.48a.51.51,0,0,1,.54-.57h3.34c.37,0,.54.19.54.56,0,.82,0,1.65,0,2.48,0,.36-.19.54-.56.55H43.49m-.43-2.59a1.53,1.53,0,0,0,0-.37c0-.08-.1-.15-.15-.23-.07.08-.19.14-.2.22a5,5,0,0,0,0,.77.3.3,0,0,0,.2.18s.15-.1.16-.17a1.79,1.79,0,0,0,0-.4m1.26,0h0a1.32,1.32,0,0,0,0-.4c0-.09-.13-.15-.19-.23-.06.08-.16.15-.17.23a4,4,0,0,0,0,.77c0,.07.13.15.21.17s.14-.1.16-.17a1.53,1.53,0,0,0,0-.37M43.06,62.5a1.08,1.08,0,0,0,0-.36c0-.08-.11-.14-.17-.21s-.18.12-.19.19a3.56,3.56,0,0,0,0,.73c0,.09.14.15.22.23a.89.89,0,0,0,.14-.25,1.19,1.19,0,0,0,0-.33m1.25,0h0a1.15,1.15,0,0,0,0-.37c0-.08-.11-.14-.18-.2s-.17.13-.18.21a3.56,3.56,0,0,0,0,.73c0,.07.11.14.17.21s.17-.13.19-.22a1.08,1.08,0,0,0,0-.36"/><path class="cls-1" d="M40.28,57c.58.11.58.11.48.64a5.67,5.67,0,0,0-.15.69,1.12,1.12,0,0,0,.1.39s0,.07,0,.1c.14.67.27,1.33.41,2h-.57c-.06-.31-.13-.63-.2-1h-.07v3.56H38.84V60.83l-.65,0c.28-.84.56-1.65.82-2.46s.25-.84-.62-.85H38.1c0-.13,0-.25,0-.38l.45,0c0-.2,0-.38,0-.56s0-.37,0-.57h1.71Z"/><path class="cls-1" d="M43.71,44.23c-.13,1.46.2,2.92-.25,4.33a4.07,4.07,0,0,1-1.9,2.26v-.44c0-1.44,0-2.87,0-4.31a1.72,1.72,0,0,1,2.16-1.84"/><path class="cls-1" d="M58.45,27v4.22a1.55,1.55,0,0,1-1.38,1.64l-.29,0c-.71.06-.73,0-.72-.66a8.8,8.8,0,0,1,.22-2.8A4.19,4.19,0,0,1,58.45,27"/><path class="cls-1" d="M37.6,58.37v.4H30v-.39h2.89c0-.38,0-.71,0-1,0-.07-.2-.19-.31-.19-.7,0-1.4,0-2.13,0v-.4h2.42v-.8h1.82v.79h2.47c0,.15,0,.27,0,.41-.72,0-1.41,0-2.1,0-.31,0-.4.1-.4.41,0,.82,0,.82.82.83H37.6"/><path class="cls-1" d="M43.51,57.07H45c.39,0,.56.17.58.56s0,.84,0,1.26-.18.53-.57.54H42c-.42,0-.58-.17-.59-.59s0-.76,0-1.14.18-.62.64-.62Zm.59,1.18c0-.7-.05-.77-.57-.77s-.64.07-.64.64v.33c0,.49.12.59.63.58s.57-.09.58-.59v-.19"/><rect class="cls-1" x="41.31" y="56.13" width="4.39" height="0.38"/><path class="cls-1" d="M35.83,70.17c0-.8,0-1.61,0-2.41a.74.74,0,0,0-.74-.8H30.23a.74.74,0,0,0-.75.8c0,1.59,0,3.19,0,4.78a.71.71,0,0,0,.79.78h4.78a.7.7,0,0,0,.78-.78c0-.79,0-1.58,0-2.37m-5,.7c-.24,0-.44-.38-.43-.81s.22-.77.45-.76.41.36.41.75-.2.81-.43.82m1.06-2.8c.31,0,.57.47.57,1s-.27,1-.59,1-.6-.48-.59-1,.29-1,.61-1m1.77,3.35a1.09,1.09,0,0,1-.87.8l-.33,0a3.12,3.12,0,0,1-.37-.06,1,1,0,0,1-.76-.88.87.87,0,0,1,.8-.83,2.14,2.14,0,0,1,1,.07.84.84,0,0,1,.56.87m-.32-1.36c-.32,0-.6-.47-.59-1s.3-1,.62-1,.56.46.57,1-.28,1-.6,1m1.07,1.13c-.23,0-.44-.37-.43-.81s.22-.77.45-.75.41.36.41.75-.2.81-.43.81"/><path class="cls-1" d="M50.31,61.52a1,1,0,0,0-1,1,1,1,0,1,0,2,0,1,1,0,0,0-1-1m0,1.34a.33.33,0,0,1,0-.65.33.33,0,0,1,0,.65"/></g></g></svg>