<svg xmlns="http://www.w3.org/2000/svg" viewBox="0 0 280.12 238.65"><defs><style>.cls-1{fill:#e7b81f;}</style></defs><g id="圖層_2" data-name="圖層 2"><g id="圖層_1-2" data-name="圖層 1"><path class="cls-1" d="M86.78,126.11A20.95,20.95,0,0,1,66,105.34q0-40.74,0-81.5C66,14.6,73.09,6.35,82.68,4.08,96.52.81,109,10.75,109.05,25c0,3.48,0,6.92-1.64,10.16A16,16,0,0,1,93,44.38a7.5,7.5,0,0,1-7.61-4.92A7.26,7.26,0,0,1,87,30.91a5.77,5.77,0,0,1,1.09-.59l-6.57-5.94a15.59,15.59,0,0,0-5.42,10.35c-1.4,14,11.81,20,20.56,18.08a26.69,26.69,0,0,0,17.42-11.65,3.12,3.12,0,0,1,2.28-1.06c18.75-.06,37.51,0,56.26-.06,6.46,0,12.35-1.62,17-6.49a12.93,12.93,0,0,0,3.69-9.24q0-11.47,0-22.94V0h2.13q18.94,0,37.88,0a21.06,21.06,0,0,1,21.27,18.9c1.42,11.31-8,22.51-19.39,22.91-6.68.23-13.38.13-20.08,0-1.86,0-2.3.58-2.3,2.37.07,20.15-.08,40.31.1,60.47a21.11,21.11,0,0,1-17.27,21.15c-10.46,1.84-19.54-3.85-23.12-13.24a25.36,25.36,0,0,1-1.48-8.12c-.2-6.94-.06-13.9-.06-20.85V82.05c-.56,0-1-.09-1.41-.09-20.65,0-41.3,0-61.95,0-5.6,0-10.73,1.1-15.22,4.64A13.81,13.81,0,0,0,86.78,98c0,8.66,0,17.31,0,26Zm133-100.76c4.58.41,8.45-4.38,8.5-8.63a9.07,9.07,0,0,0-9.12-9c-4.43,0-8.49,4.43-8.45,9.25,0,4.51,4.19,8.33,9.07,8.35"/><path class="cls-1" d="M256.36,214.25v3.22c.73,0,13.19.08,18.74.1,3.06,0,4.94,1.67,4.91,4.28s-1.81,4.3-4.88,4.31c-5.49,0-11,0-16.48,0h-2.22v3.21h3.24q7.68,0,15.34,0c3.07,0,5.05,1.78,5,4.44s-1.93,4.33-4.94,4.35q-11.46.08-22.92,0a4.48,4.48,0,0,1-4.59-4.55q-.08-11.56,0-23.13c0-3.4,1.59-4.8,4.94-4.81,7.7,0,15.41,0,23.11,0a4.11,4.11,0,0,1,4.12,2.77,3.7,3.7,0,0,1-1,4.49,6.64,6.64,0,0,1-3.6,1.21c-5.49.14-11,.09-16.48.1h-2.31"/><path class="cls-1" d="M117.35,229.4c1.6,0,9.93,0,14.86,0a18,18,0,0,1,2.08,0,4.37,4.37,0,1,1-.45,8.73c-4.74,0-9.47,0-14.21,0-2.9,0-5.81,0-8.71,0s-4.75-1.69-4.77-4.67q-.08-11.76,0-23.51a4,4,0,0,1,4.3-4.26q11.85-.08,23.68,0a4.21,4.21,0,0,1,4.42,4.21,4.28,4.28,0,0,1-4.51,4.34q-8.81.08-17.62,0c-1.35,0-1.71.47-1.7,1.76s.54,1.58,1.7,1.58c5.88,0,11.75,0,17.62,0a4.1,4.1,0,0,1,4.09,2.52,3.74,3.74,0,0,1-.7,4.55,6,6,0,0,1-3.49,1.43c-5.49.15-11,.07-16.48.07-2.38,0-2.68.25-2.69,1.75s1,1.48,2.6,1.48"/><path class="cls-1" d="M91.22,217c0,1.91,0,3.84,0,5.77,0,3.79,0,7.58,0,11.38a4.21,4.21,0,0,1-4.35,4.45,4.11,4.11,0,0,1-4.2-4.38c0-5.81,0-11.62,0-17.44,0-1.17,0-2-1.62-2s-1.8.82-1.79,2.11c0,5.75.06,11.5,0,17.25a4.06,4.06,0,0,1-3.17,4.36,4,4,0,0,1-4.7-1.92,5.81,5.81,0,0,1-.6-2.53q-.08-11.55,0-23.11c0-3,1.64-4.71,4.69-4.73q11.55-.06,23.11,0a4.34,4.34,0,0,1,4.65,4.62c.07,7.58.06,15.16,0,22.74,0,1.93-.57,3.64-2.45,4.58a4.16,4.16,0,0,1-4.48-.32,4.77,4.77,0,0,1-1.88-4.31c0-5.43,0-10.86,0-16.3.07-1.79-.53-2.24-1.64-2.27-1.49,0-1.57,1.1-1.58,2.08"/><path class="cls-1" d="M204.07,163.52c4.59-4.42,9.1-8.8,13.67-13.13a3.33,3.33,0,0,1,2-.83,56.64,56.64,0,0,1,5.68,0,2.71,2.71,0,0,1,1.66.62c4.69,4.46,9.34,9,14,13.46h-2.77c0,3.41,0,6.66,0,9.91,0,2.52-.83,3.32-3.43,3.4l-2.41.1,1.65,2.87c2.25-2.47,5-.9,7.76-1.48-1.05,2-1.83,3.61-2.76,5.15-.81,1.33-.85,2.41.48,3.39a8,8,0,0,1,1,1.27c-3.19,0-6.12,0-9,0a2.33,2.33,0,0,1-1.49-1c-2.05-2.87-4.09-5.75-6-8.72a2.75,2.75,0,0,0-2.64-1.63c-5.16,0-5.16,0-5.17,5.11,0,4.14,0,4.14,4.11,4.15h1.85c0,.7.09,1.29.14,2.07-4.55,0-9,.1-13.35-.11-.68,0-1.82-1.55-1.84-2.4C207,179,207,172.29,207,165.59a9.38,9.38,0,0,1,.43-1.9l-3.4-.17M223,168.93v0c1.64,0,3.29.08,4.91-.05.57,0,1.48-.58,1.55-1,.16-1,.12-2.43-1.31-2.5-3.46-.15-6.93-.13-10.39-.09-1.36,0-1.48,1.08-1.53,2.17-.07,1.27.68,1.44,1.67,1.43,1.7,0,3.4,0,5.1,0m-6.71,5.83h10.55c2.52,0,3.26-1.19,2.34-3.56H216.27Zm6.23-18.48-7,6.64c2.14.86,3-.06,3.1-1.85h7.82c.62,2.37.7,2.41,3.2,1.77l-7.09-6.56"/><path class="cls-1" d="M186.56,225.53a1.44,1.44,0,0,0-1.44,1.44c0,2.23,0,4.31,0,6.38a4,4,0,0,1-3.91,4.21,3.82,3.82,0,0,1-4.26-4q-.09-12.21,0-24.43a4,4,0,0,1,4.34-4q11.64,0,23.28,0c3,0,4.79,1.86,4.79,4.86,0,7.64,0,15.28,0,22.92,0,3.47-2.84,5.64-5.76,4.43a4.24,4.24,0,0,1-2.6-4.25c0-2,.07-4,0-6.05,0-.52-.6-1.44-.94-1.44-4.44-.09-8.87-.07-13.45-.07m-1.32-8.94a.6.6,0,0,0,.6.6c2.21,0,10,0,14,0,1.48,0,1.07-1.11,1.11-1.9s.18-1.83-1.23-1.8c-2.27,0-4.54,0-6.82,0H186.3c-.79,0-1.06.26-1.06,1.06Z"/><path class="cls-1" d="M157.56,237.92c-3.79,0-7.58,0-11.37,0-2.95,0-4.75-1.72-4.76-4.68q-.08-11.56,0-23.12a4.39,4.39,0,0,1,4.67-4.64q11.55-.06,23.1,0c2.84,0,4.72,1.84,4.69,4.35s-1.89,4.24-4.77,4.26c-5.55,0-11.11.06-16.66,0-1.76,0-2.45.38-2.37,2.29.17,3.78.14,7.58.06,11.36,0,1.34.52,1.58,1.67,1.57,5.68,0,11.37,0,17.05,0,3.11,0,5,1.71,5,4.39s-1.89,4.23-5,4.24c-3.79,0-7.57,0-11.36,0"/><path class="cls-1" d="M8.61,226.1c0,2.37,0,4.63,0,6.88,0,2.94-1.82,4.92-4.37,4.87S0,236,0,232.91V210.37c0-3.06,1.62-4.93,4.22-4.93s4.36,1.93,4.38,5.05c0,2.19,0,4.38,0,6.66H23.85c0-2.61-.09-5.18,0-7.74a4.19,4.19,0,0,1,6-3.58,4.13,4.13,0,0,1,2.45,4c0,8,.07,15.9,0,23.86a4.08,4.08,0,0,1-4.4,4.19c-2.45-.05-4.09-1.78-4.14-4.45,0-2.39,0-4.78,0-7.29Z"/><path class="cls-1" d="M228.38,205.4h11.73c2.68,0,4.52,1.63,4.56,4s-1.82,4.2-4.57,4.21c-5.87,0-11.74.06-17.6,0-1.41,0-2,.28-2.05,1.87s.58,2,2.1,2c5.67-.06,11.35,0,17,0,3.23,0,5.06,1.5,5.1,4.07s-2,4.16-5.21,4.17c-5.68,0-11.36,0-17,0-1.49,0-2,.41-1.93,1.92.1,2,.05,3.91,0,5.87-.11,2.66-1.87,4.41-4.25,4.33s-3.95-2-3.95-4.61q0-11.55,0-23.1c0-3.31,1.39-4.67,4.74-4.67h11.36Z"/><path class="cls-1" d="M172.59,149.36c-.37,1.94-.7,3.72-1.09,5.79,2.34,0,4.46-.05,6.58,0s2.78.72,2.22,2.83c-1.6,6.07-3.38,12.1-5,18.18a4.3,4.3,0,0,0,.18,2.75c1.42,2.88,3,5.66,4.57,8.47a5.9,5.9,0,0,1,.24.81,52.28,52.28,0,0,1-6.88-.09c-.92-.13-1.69-1.34-2.66-2.17-.82,3.29-3.58,2.15-5.86,2.27-.88,0-1.76,0-2.91,0,1.4-2.9,2.69-5.67,4.07-8.39a2.69,2.69,0,0,0-.06-3.13c-.76-1.08-1.23-2.35-2-3.43a9.63,9.63,0,0,1-1.56-8.89,54.49,54.49,0,0,0,1.24-6.77l-1.76-.37v-2c4.3-.17,1.86-4.16,3.7-5.91Zm-2.88,19.26h.92c.73-3.35,1.49-6.69,2.14-10.05.06-.31-.53-.88-.94-1.08-.17-.08-.89.46-1,.8-.6,2.7-1.17,5.41-1.6,8.14a6.62,6.62,0,0,0,.44,2.2"/><path class="cls-1" d="M194.92,167.44h5.63c0,.74.08,1.33.13,2.11H195c0,.77,0,1.37,0,2,0,4.48,0,9,0,13.45,0,2.33-.91,3.22-3.16,3.23h-9.41c.06-.76.11-1.36.16-2.11a5.26,5.26,0,0,0,2,0c.62-.31,1.51-1,1.52-1.5.12-4.91.07-9.83.07-14.94h-6c0-.75-.06-1.3-.1-2.13,1.65,0,3.21.06,4.75,0a1.9,1.9,0,0,0,1.43-.76c1.4-3.84,2.66-7.73,4-11.57.88-2.42.84-2.57-1.7-2.58h-7.23v-2.14c5.77,0,11.44,0,17.11,0,1.55,0,2.14,1.3,1.55,2.86-1.45,3.83-2.91,7.66-4.34,11.5-.27.74-.4,1.53-.69,2.66"/><path class="cls-1" d="M73,166.07,71,171.51h4.5c0,.77.09,1.36.15,2.25H70c-1.26,0-2.52,0-3.79,0-5,.14-4-1-4.14,4.37,0,1.17.47,1.51,1.58,1.49,3.72,0,7.45,0,11.17,0h2v2.05H70.57c-2.27,0-4.55.08-6.81,0-1.39-.06-1.78.52-1.74,1.77,0,1.5,0,3,0,4.68H52.87v-6.42H38.14c0-.74-.07-1.28-.12-2.07h11c3.87,0,3.87,0,3.87-3.91v-1.88H39.5c0-.79-.09-1.37-.14-2.2H43.9c-.66-1.93-1.21-3.55-1.89-5.56,3,0,5.86,0,8.71.07.36,0,.78.87,1,1.41,1.65,4.07,1.64,4.08,6.07,4.07,3.92,0,4,0,5.32-3.77A2.22,2.22,0,0,1,65.68,166c2.32.12,4.65,0,7.27,0"/><path class="cls-1" d="M106.82,188.22c-2.71,0-5.42,0-8.13,0-2.23,0-3.09-.87-3.11-3.09q-.06-6.15,0-12.3c0-1.87.91-2.89,2.76-2.91,5.67-.07,11.34-.06,17,0,1.89,0,2.76.95,2.78,2.84.06,4.22.06,8.45,0,12.67a2.53,2.53,0,0,1-2.83,2.8c-2.83,0-5.67,0-8.5,0M104.65,175a8.23,8.23,0,0,0,0-1.86,3.82,3.82,0,0,0-.8-1.17c-.34.36-.94.7-1,1.1a21.51,21.51,0,0,0-.07,3.93c0,.35.6.81,1,.92.2.06.78-.5.86-.86a10.09,10.09,0,0,0,0-2.06m6.39.15h0a8.3,8.3,0,0,0,0-2.06c-.12-.44-.65-.76-1-1.13-.3.37-.82.73-.86,1.13a22.66,22.66,0,0,0,0,3.95c0,.35.66.77,1.09.89.18,0,.72-.54.81-.91a9,9,0,0,0,0-1.87m-6.39,8a7.68,7.68,0,0,0,0-1.86c-.1-.41-.57-.72-.88-1.08-.34.33-.94.63-1,1a17.32,17.32,0,0,0,0,3.74c0,.42.71.76,1.1,1.14a4.77,4.77,0,0,0,.75-1.25,7.22,7.22,0,0,0,0-1.68m6.38,0h0a7.66,7.66,0,0,0,0-1.86c-.12-.41-.6-.72-.92-1.07-.33.36-.91.69-1,1.08a19.47,19.47,0,0,0,0,3.74c0,.38.59.72.9,1.08.34-.36.85-.68,1-1.11a7.19,7.19,0,0,0,0-1.86"/><path class="cls-1" d="M90.47,155.16c2.94.55,3,.56,2.4,3.28a35.73,35.73,0,0,0-.74,3.5,5.78,5.78,0,0,0,.53,2,5.55,5.55,0,0,1,.2.52c.69,3.38,1.36,6.77,2.07,10.29H92.05c-.33-1.56-.68-3.2-1-4.83h-.38v18.2H83.1V174.61l-3.34-.21c1.43-4.27,2.88-8.41,4.2-12.59s1.28-4.25-3.16-4.3c-.44,0-.87,0-1.45-.08,0-.65-.06-1.23-.09-1.9l2.33-.24c0-1,.12-1.91.14-2.83s0-1.88,0-2.94h8.73Z"/><path class="cls-1" d="M107.94,89.89c-.63,7.43,1,14.87-1.25,22.1A20.66,20.66,0,0,1,97,123.48v-2.23c0-7.33,0-14.66,0-22-.06-6.51,4.09-10.23,11-9.37"/><path class="cls-1" d="M183.2,2.05V16.76q0,3.4,0,6.82c0,4.52-2.57,7.58-7.07,8.38-.49.08-1,.15-1.5.19-3.63.3-3.7.27-3.65-3.38.07-4.77-.49-9.6,1.1-14.26A21.34,21.34,0,0,1,183.2,2.05"/><path class="cls-1" d="M76.77,162v2.05H38.11v-2H52.89c0-1.92.1-3.61-.07-5.28,0-.39-1-1-1.55-1-3.59-.09-7.18-.05-10.9-.05v-2H52.75v-4.1H62v4H74.62c.06.79.11,1.38.17,2.12-3.7,0-7.22.06-10.74,0-1.56,0-2,.5-2,2.06C62,162,62,162,66.2,162c3.46,0,6.92,0,10.57,0"/><path class="cls-1" d="M106.91,155.41c2.52,0,5,0,7.56,0,2,0,2.89.85,3,2.86s.07,4.29,0,6.43c-.06,1.9-.91,2.71-2.87,2.72q-7.65.06-15.3,0c-2.14,0-3-.9-3-3,0-2,0-3.9,0-5.85,0-2.29.92-3.13,3.28-3.15s4.91,0,7.36,0Zm3,6c0-3.58-.26-3.94-2.92-4-2.84,0-3.23.38-3.25,3.27,0,.57,0,1.14,0,1.71,0,2.51.58,3,3.22,3,2.44,0,2.9-.5,2.94-3.05v-.95"/><rect class="cls-1" x="95.7" y="150.6" width="22.39" height="1.96"/><path class="cls-1" d="M67.75,222.26c0-4.1,0-8.2,0-12.3A3.77,3.77,0,0,0,64,205.88q-12.39-.1-24.79,0A3.75,3.75,0,0,0,35.32,210q0,12.21,0,24.42c0,2.54,1.48,3.95,4,4q12.2,0,24.4,0c2.6,0,4-1.38,4-4,0-4,0-8.08,0-12.12m-25.33,3.55c-1.21,0-2.23-1.9-2.2-4.12s1.11-3.93,2.3-3.85,2.09,1.84,2.11,3.83c0,2.2-1,4.13-2.21,4.14m5.43-14.24c1.54.1,2.88,2.35,2.91,4.89,0,2.8-1.4,5.27-3,5.28s-3.07-2.43-3-5.26,1.52-5,3.15-4.91m9,17.05a5.42,5.42,0,0,1-4.43,4.09c-.49.09-1,.09-1.7.15a11.11,11.11,0,0,1-1.86-.27c-2.42-.71-3.94-2.51-3.9-4.51s1.49-3.81,4.09-4.25a11.14,11.14,0,0,1,4.93.38,4.2,4.2,0,0,1,2.87,4.41m-1.61-6.9c-1.66,0-3.06-2.42-3-5.26s1.52-5,3.16-4.9,2.88,2.35,2.9,4.89c0,2.8-1.39,5.26-3,5.27m5.46,5.76c-1.21,0-2.23-1.9-2.2-4.13s1.11-3.93,2.3-3.84,2.09,1.84,2.11,3.83c0,2.2-1,4.13-2.21,4.14"/><path class="cls-1" d="M141.66,178.13a5,5,0,0,0-5.16,5.11,5.18,5.18,0,1,0,10.35,0,5.09,5.09,0,0,0-5.19-5.09m0,6.81a1.64,1.64,0,1,1,1.64-1.64,1.63,1.63,0,0,1-1.64,1.64"/></g></g></svg>