<svg xmlns="http://www.w3.org/2000/svg" viewBox="0 0 498.14 335.47"><defs><style>.cls-1{fill:#f5c20d;}.cls-1,.cls-2,.cls-3{fill-rule:evenodd;}.cls-2{fill:#f5c20c;}.cls-3{fill:#f6c10d;}</style></defs><g id="圖層_2" data-name="圖層 2"><g id="圖層_1-2" data-name="圖層 1"><path class="cls-1" d="M100.31,312.07c-3.9,6.63-9.85,11.13-16.15,15.16-3.16,2-2.68-.75-2.69-2.47q0-15,0-30c0-11.48.39-23-.1-34.46-.64-14.9,14.34-23,27.44-22.42,1.63.08,2.45.77,2.42,2.44-.34,16.13.86,32.29-.67,48.4a40.79,40.79,0,0,1-4.68,14.67C102.64,305.41,101.89,309,100.31,312.07Z"/><path class="cls-2" d="M494.29,38.51c-.88-2.11-.4-4.25-.78-6.34a15.3,15.3,0,0,0-2.79-6.36C479.2,9.56,463.74.24,443.55.11c-33.3-.2-66.61-.07-99.92,0-8.05,0-8.79.77-8.81,8.9q-.06,27.74,0,55.46A34.39,34.39,0,0,1,324.2,90c-10,9.81-22,15-35.94,15q-75.94.25-151.88,0c-5.36,0-9.14,1.59-12.1,6.19a59.73,59.73,0,0,1-21.7,20.25c-13.06,7.17-26.83,10.91-41.77,7.18-13.22-3.31-22.5-11.78-29.53-23.08-.55-.83-1.18-1.58-1.69-2.44-3.5-5.86-1.44-12.28-1.95-18.44C27,87.25,30,80.84,33.41,74.57a3.12,3.12,0,0,1,2.21-1.77c2.61-.33,4.22-4.45,6.92-2.84A46,46,0,0,1,54.26,80.47c1.9,2.34-2.73,4.42-3,7.24,0,.32-.15.64-.19,1,.46,3.41-2.14,6.49-1.6,9.67,1.34,7.82,5.39,14.27,12.29,18.35,6.34,3.76,12.9,2.17,19.67.36,13.55-3.64,23.37-11.25,28.74-24.34,2-4.91,3.91-9.81,3.5-15.3C113,69,114.33,60.68,112,52.23c-1.36-4.93-4.85-9.16-4.66-14.52A10.49,10.49,0,0,0,106.11,35c-15-24.81-50.83-33.49-75.58-18.31-2,1.6-3.5,3.93-6.48,3.76-7.19,3.56-12,9.64-16.38,16C5.56,39.5,3.46,42.77,3.41,46.77,1.79,52.53,0,58.25,0,64.34c0,72.48-.14,145,.08,217.44.09,28.46,26.41,53.93,54.19,53.28,1.39-1.93.94-4.16.94-6.28,0-24.61-.12-49.22.11-73.83a24.17,24.17,0,0,1,9.44-19.44l3.48-3.5c6.78-8,16.22-11.34,25.91-13.29,9.22-1.84,18.87-1.49,28.24-1.49,50.38,0,100.78-1.25,151.16.76,5,.2,5.54.92,4.23,6.15q-.09,25.19,0,50.38c0,4.47-.48,9,.38,13.41,3.63,22.21,16.39,37.26,37.36,44.34,21.33,7.21,40.52,2.09,56.68-13.76,2.67-4.3,6.19-8,8.63-12.47,3.22-5.85,5.12-12.27,7.15-18.61.18-3.48.52-7,.52-10.45q0-79.4-.09-158.81c0-4.31,1.33-5.21,5.34-5.16,15.82.21,31.63.14,47.45.06,16.94-.08,31.55-5.69,43-18.59a62.37,62.37,0,0,1,3.5-5.88C497.76,73,501.74,56.44,494.29,38.51Zm-93,29.25c-.81-.17-1.65-.19-2.47-.28-13.12-2.31-22.17-20.26-13.7-32.85a24.19,24.19,0,0,1,2.95-3.24c8.53-8.58,16.46-10.58,26-6.54A23.43,23.43,0,0,1,428.2,45.94,22.12,22.12,0,0,1,401.27,67.76Z"/><path class="cls-3" d="M278.3,47.49c3-17.81,13.23-30.39,28.58-39.23,2.67-1.54,3.44-.74,3.43,2.12-.07,19.28,0,38.56-.12,57.84a14.37,14.37,0,0,1-5.46,11.28c-3.59,1.84-7.33,3.43-10.47,6l.07,0a50,50,0,0,1-11.84,1c-2.5-.08-4.49-1.27-4.49-3.74C278,71,277.13,59.23,278.3,47.49Z"/></g></g></svg>