<svg xmlns="http://www.w3.org/2000/svg" viewBox="0 0 50.08 50.09"><defs><style>.cls-1{fill:#446db4;}.cls-2{fill:#fff;}</style></defs><g id="圖層_2" data-name="圖層 2"><g id="圖層_1-2" data-name="圖層 1"><path class="cls-1" d="M50.08,25A25,25,0,1,0,21.13,49.78V32.28H14.77V25h6.36V19.53c0-6.28,3.74-9.75,9.46-9.75a38.31,38.31,0,0,1,5.6.49v6.16H33c-3.12,0-4.09,1.94-4.09,3.92V25h7l-1.11,7.24H29v17.5A25,25,0,0,0,50.08,25Z"/><path class="cls-2" d="M34.79,32.28,35.9,25H29V20.35c0-2,1-3.92,4.09-3.92h3.15V10.27a38.31,38.31,0,0,0-5.6-.49c-5.72,0-9.46,3.47-9.46,9.75V25H14.77v7.24h6.36v17.5a24.81,24.81,0,0,0,7.82,0V32.28Z"/></g></g></svg>