<svg xmlns="http://www.w3.org/2000/svg" viewBox="0 0 49.78 49.78"><defs><style>.cls-1,.cls-3{fill:#c31360;}.cls-2{fill:#fafafb;}.cls-2,.cls-3,.cls-4{fill-rule:evenodd;}.cls-4{fill:#f9f6f7;}</style></defs><g id="圖層_2" data-name="圖層 2"><g id="圖層_1-2" data-name="圖層 1"><path class="cls-1" d="M0,24.89A24.89,24.89,0,1,1,24.89,49.78,24.89,24.89,0,0,1,0,24.89Z"/><path class="cls-2" d="M24.87,39.19A14.14,14.14,0,0,1,10.81,26.55a14,14,0,0,1,2.08-9c.17-.28.2-.44-.05-.71a3.72,3.72,0,1,1,5.6-4.89.5.5,0,0,0,.69.18,14,14,0,0,1,11.48,0,.45.45,0,0,0,.65-.14,3.72,3.72,0,1,1,5.59,4.9c-.22.24-.17.38,0,.63,3,5.23,3,10.43-.29,15.52A13.92,13.92,0,0,1,24.87,39.19Z"/><path class="cls-3" d="M19.4,18.15a2.64,2.64,0,0,1,2.4,1.11,2.06,2.06,0,0,1-.11,2.65c-.57.7-1.17,1.38-1.68,2.13a7.52,7.52,0,0,0-1.08,2.29,1.69,1.69,0,0,1-2.9,1,5.19,5.19,0,0,1,3.37-9.15Z"/><path class="cls-3" d="M30.35,18.17a5,5,0,0,1,4.72,3.13,4.78,4.78,0,0,1-.71,5.33,3.5,3.5,0,0,1-1.23,1,1.5,1.5,0,0,1-2.21-.87A12.83,12.83,0,0,0,28,21.93a2,2,0,0,1-.37-2.22,2.42,2.42,0,0,1,2.13-1.54C30,18.16,30.15,18.17,30.35,18.17Z"/><path class="cls-3" d="M24.84,28.64c1,0,2,0,3,0,.35,0,.47.06.4.45a3.58,3.58,0,0,1-6.81.27c-.18-.68-.16-.71.5-.71Z"/><path class="cls-3" d="M36.76,14.31A2.61,2.61,0,0,1,36.18,16c-.18.25-.29.22-.47,0a13.61,13.61,0,0,0-3.44-3c-.27-.16-.24-.27-.05-.47a2.62,2.62,0,0,1,2.83-.67A2.59,2.59,0,0,1,36.76,14.31Z"/><path class="cls-3" d="M13,14.27a2.57,2.57,0,0,1,1.69-2.4,2.62,2.62,0,0,1,2.84.64c.21.22.23.33-.05.5A13.59,13.59,0,0,0,14,16c-.19.24-.31.28-.5,0A2.71,2.71,0,0,1,13,14.27Z"/><path class="cls-3" d="M25,25.32a5.6,5.6,0,0,1,1.88.29c.46.18.54.44.28.87A2.92,2.92,0,0,1,24,27.54a3.44,3.44,0,0,1-1.4-.94c-.4-.5-.31-.84.3-1A6.67,6.67,0,0,1,25,25.32Z"/><path class="cls-4" d="M19.63,20.52a.75.75,0,1,1,0,1.49.75.75,0,0,1,0-1.49Z"/><path class="cls-4" d="M30.21,22a.76.76,0,0,1-.71-.78.74.74,0,0,1,.76-.71A.75.75,0,0,1,30.21,22Z"/></g></g></svg>