<svg xmlns="http://www.w3.org/2000/svg" viewBox="0 0 69.04 62.09"><defs><style>.cls-1{fill:#232323;stroke:#fff;stroke-miterlimit:10;stroke-width:1.54px;}.cls-2{font-size:12px;fill:#f0bd0c;font-family:MicrosoftJhengHeiBold, Microsoft JhengHei;}</style></defs><g id="圖層_2" data-name="圖層 2"><g id="圖層_1-2" data-name="圖層 1"><path class="cls-1" d="M13.78,23.79c-.2,6-3.26,10.74-6.85,10.62S.59,29.35.78,23.37,4,12.64,7.63,12.75s6.34,5.06,6.15,11"/><path class="cls-1" d="M32.44,11.81c-.2,6-3.26,10.74-6.85,10.62s-6.34-5.06-6.15-11S22.7.66,26.29.77s6.34,5.06,6.15,11"/><path class="cls-1" d="M51.31,12.42c-.19,6-3.26,10.74-6.85,10.62S38.12,18,38.31,12,41.57,1.27,45.16,1.38s6.35,5.06,6.15,11"/><path class="cls-1" d="M68.27,28.14c-.2,6-3.26,10.74-6.85,10.63s-6.34-5.06-6.15-11.05S58.53,17,62.11,17.11s6.35,5.06,6.16,11"/><path class="cls-1" d="M33.92,25.49c-13.48-.44-24.67,7.23-25,17.12S19.28,60.87,32.76,61.3s24.67-7.22,25-17.12S47.4,25.93,33.92,25.49"/><text class="cls-2" transform="translate(15.1 47.65)">MENU</text></g></g></svg>