<svg xmlns="http://www.w3.org/2000/svg" viewBox="0 0 49.78 49.78"><defs><style>.cls-1,.cls-4{fill:#040000;}.cls-2{fill:#2baf65;}.cls-2,.cls-3,.cls-4{fill-rule:evenodd;}.cls-3{fill:#efe9e3;}</style></defs><g id="圖層_2" data-name="圖層 2"><g id="圖層_1-2" data-name="圖層 1"><path class="cls-1" d="M0,24.89A24.89,24.89,0,1,1,24.89,49.78,24.89,24.89,0,0,1,0,24.89Z"/><path class="cls-2" d="M10.35,31c0-1.5,0-3,0-4.47,0-.31.09-.39.38-.38h6.22c.27,0,.39.06.36.36a7.37,7.37,0,0,0,0,.94c0,.32-.1.38-.39.38-1.41,0-2.83,0-4.24,0-.35,0-.46.1-.43.45s0,1,0,1.47.06.46.42.45c1.38,0,2.75,0,4.13,0,.3,0,.41.08.38.38a6.91,6.91,0,0,0,0,.91c0,.27-.07.34-.34.34-1.37,0-2.75,0-4.13,0-.39,0-.49.1-.46.48s0,1,0,1.51c0,.3.07.39.37.38,1.42,0,2.83,0,4.25,0,.33,0,.48.07.44.44a7.37,7.37,0,0,0,0,.94c0,.24-.08.3-.31.3H10.67c-.3,0-.32-.12-.32-.36Z"/><path class="cls-2" d="M23.91,35.23a7.94,7.94,0,0,1-.86.46,3.94,3.94,0,0,1-4.46-1.14A3.74,3.74,0,0,1,18.48,30a3.91,3.91,0,0,1,5.14-1c.23.15.38.24.34-.16,0-.16.06-.23.22-.22.47,0,.94,0,1.4,0,.3,0,.24.2.24.37v5.83c0,.22,0,.45,0,.68s0,.28-.25.27c-.45,0-.91,0-1.36,0S24.05,35.43,23.91,35.23Z"/><path class="cls-3" d="M20.69,17.32a3.84,3.84,0,0,1,5.4.26,3.68,3.68,0,0,1-.09,5,3.82,3.82,0,0,1-5.31.17c0,.23,0,.41,0,.58s-.06.27-.26.26c-.38,0-.86.12-1.1-.06s-.08-.71-.08-1.09c0-2.72,0-5.45,0-8.18,0-.3.08-.41.37-.37s.8-.14,1,.08.05.65.06,1Z"/><path class="cls-3" d="M16.7,22.69a3.8,3.8,0,0,1-3.86.81,3.53,3.53,0,0,1-2.48-3.59c0-1.92,0-3.84,0-5.76,0-.23.06-.32.3-.3s.88-.15,1.13.07.08.74.08,1.12c0,1.63,0,3.26,0,4.89a2.29,2.29,0,0,0,1.32,2.21,2.32,2.32,0,0,0,2.57-.27,2.48,2.48,0,0,0,.92-2.1c0-1.83,0-3.67,0-5.5,0-.36.12-.45.45-.42a4.17,4.17,0,0,0,.79,0c.21,0,.26.07.26.26,0,3.06,0,6.11,0,9.17,0,.22-.07.28-.28.27a4.6,4.6,0,0,0-.83,0c-.32,0-.4-.1-.37-.38A3.5,3.5,0,0,0,16.7,22.69Z"/><path class="cls-2" d="M33.36,33.46a1.93,1.93,0,0,0,.34,0c.35,0,.62,0,.76.41a.79.79,0,0,0,.44.4,3.06,3.06,0,0,0,2.15.06.59.59,0,0,0,.46-.58c0-.3-.27-.42-.53-.48-.69-.17-1.4-.32-2.1-.48a4.61,4.61,0,0,1-1.35-.47,1.9,1.9,0,0,1-.21-3.2,3.12,3.12,0,0,1,1.54-.6,5.5,5.5,0,0,1,2.87.25,2.36,2.36,0,0,1,1.48,1.83c0,.24,0,.38-.29.36a11.41,11.41,0,0,0-1.17,0,.37.37,0,0,1-.45-.29,1,1,0,0,0-.57-.57A2.63,2.63,0,0,0,35,30a.6.6,0,0,0-.51.58c0,.31.26.43.51.48.76.18,1.53.33,2.3.5a3.79,3.79,0,0,1,1.19.44,1.89,1.89,0,0,1,.4,3,3.19,3.19,0,0,1-2.11.92,5.17,5.17,0,0,1-2.95-.45,2.64,2.64,0,0,1-1.36-1.73c-.06-.23,0-.3.22-.29Z"/><path class="cls-3" d="M31.93,20.47c-.87,0-1.74,0-2.61,0-.29,0-.31.09-.24.33a2.45,2.45,0,0,0,4.12.89c.21-.22.35-.26.56,0a2.17,2.17,0,0,0,.3.23c.47.33.47.34.07.72a3.86,3.86,0,0,1-4.21.83,3.43,3.43,0,0,1-2.36-3.21,3.66,3.66,0,0,1,3.49-3.87,3.53,3.53,0,0,1,3.79,3.51c0,.62,0,.62-.6.62Z"/><path class="cls-2" d="M28,32.39c0-.59,0-1.18,0-1.77,0-.26,0-.39-.33-.35a.75.75,0,0,1-.15,0c-.94,0-.94,0-.94-.95,0-.69,0-.69.71-.69s.71,0,.71-.72c0-.35,0-.7,0-1.06,0-.19.06-.27.26-.26.45,0,.89,0,1.33,0,.22,0,.28.08.28.29,0,.47,0,1,0,1.44,0,.25.07.32.32.31.49,0,1,0,1.48,0,.21,0,.29.07.29.29a9.37,9.37,0,0,0,0,1.06c0,.22-.07.31-.31.3-.49,0-1,0-1.48,0-.23,0-.3.06-.3.3,0,1,0,1.94,0,2.91,0,.45.19.65.64.66s.76,0,1.14,0c.2,0,.3,0,.3.26a10.09,10.09,0,0,0,0,1.1c0,.2-.08.26-.27.26-.67,0-1.34,0-2,0A1.65,1.65,0,0,1,28,34C28,33.46,28,32.92,28,32.39Z"/><path class="cls-3" d="M37,17.32a2.13,2.13,0,0,1,1.93-.9c.25,0,.3.08.28.3s.1.66,0,.9-.54.08-.82.14a1.54,1.54,0,0,0-1.3,1.47c-.09,1,0,1.94,0,2.91q0,.57,0,1.14c0,.22-.07.28-.27.27a6.91,6.91,0,0,0-.91,0c-.21,0-.26-.07-.26-.26q0-3.28,0-6.55c0-.2.07-.27.26-.26a5.75,5.75,0,0,0,.83,0c.26,0,.37.06.33.33A4.2,4.2,0,0,0,37,17.32Z"/><path class="cls-4" d="M24,32.23A2.19,2.19,0,1,1,21.81,30,2.14,2.14,0,0,1,24,32.23Z"/><path class="cls-4" d="M25.59,20.07a2.47,2.47,0,1,1-2.44-2.49A2.49,2.49,0,0,1,25.59,20.07Z"/><path class="cls-4" d="M31.23,19.36H29.3c-.21,0-.26,0-.19-.25a2.27,2.27,0,0,1,2.12-1.54,2.22,2.22,0,0,1,2.1,1.56c.06.21,0,.23-.18.23Z"/></g></g></svg>