<svg xmlns="http://www.w3.org/2000/svg" viewBox="0 0 614.59 271.17"><defs><style>.cls-1{fill:#fff;stroke:#3d3d3d;stroke-miterlimit:10;stroke-width:4.73px;}.cls-2{fill:#3d3d3d;}</style></defs><g id="圖層_2" data-name="圖層 2"><g id="圖層_4" data-name="圖層 4"><ellipse class="cls-1" cx="307.29" cy="135.58" rx="127.05" ry="307.53" transform="translate(129.25 420.39) rotate(-81.8)"/><path class="cls-2" d="M109.56,89.18a20.52,20.52,0,0,1-4.14,3.93l-.9-1a21,21,0,0,0,4.12-3.78Zm8.32-11.48-2.06-.29-1.38,9.8,1.81.25-.16,1.16-11.2-1.57.16-1.16,2.38.33,1.38-9.79-2-.29L107,75l2,.29.38-2.7,1.26.18-.38,2.69,4.5.63.37-2.69,1.26.18L116,76.25l2.06.29ZM113.19,87l.36-2.59-4.49-.63-.36,2.59Zm.53-3.76.34-2.47-4.49-.63-.35,2.47Zm.51-3.66.33-2.38-4.49-.63L109.74,79Zm-.16,12.54-1.14.65a14.08,14.08,0,0,0-1.68-3.2l1-.67A16.78,16.78,0,0,1,114.07,92.15ZM124,94.21a1.42,1.42,0,0,1-.73,1.12,4,4,0,0,1-2.22.1c-.41-.06-.83-.14-1.26-.23l-.27-1.37c.8.18,1.47.32,2,.39.78.11,1.21,0,1.27-.46l.8-5.73-4.87-.69A15.72,15.72,0,0,1,115,94.62l-1-1a10.94,10.94,0,0,0,2.66-3.94,29.26,29.26,0,0,0,1.55-6.64l1.2-8.54,7.17,1Zm-.22-7.37.64-4.55-4.74-.66c-.15,1.42-.39,2.93-.71,4.54Zm.8-5.73.64-4.54-4.71-.66-.64,4.54Z"/><path class="cls-2" d="M135.54,95.37l-1.27-.18.17-1.25-3.83-.54-.32,2.32-1.21-.17,2.67-19,6.32.89Zm-.93-2.6.54-3.84-3.83-.54-.54,3.84Zm.7-5,.56-4L132,83.2l-.56,4Zm.73-5.2.58-4.14-3.83-.54L132.21,82Zm12.57,4.4q-.51,3.76-1.15,6.79a16.84,16.84,0,0,1-1.09,3.81,2.16,2.16,0,0,1-1.1,1,4.1,4.1,0,0,1-1.86,0c-.37,0-.82-.12-1.35-.22l-.31-1.3c.65.14,1.24.25,1.77.32a2.33,2.33,0,0,0,1.47-.1,6.25,6.25,0,0,0,1-2.44,41.89,41.89,0,0,0,1-4.94c.1-.73.16-1.37.19-1.93l-3.9-.55a17.7,17.7,0,0,1-2.4,6.62,11.27,11.27,0,0,1-4.42,3.7l-.79-1.08a10.53,10.53,0,0,0,4.15-3.26A15.08,15.08,0,0,0,142,87.25l-3.4-.47.17-1.23Zm-4.84-9.06a26.94,26.94,0,0,1-5,7.22l-1-.74a23.12,23.12,0,0,0,4.87-7.11Zm6.83,8-1.11.72a18.37,18.37,0,0,1-2.59-7.18l-2-.28L145,78l3,.42A15,15,0,0,0,150.6,85.85Z"/><path class="cls-2" d="M174.67,85.3l-17.06-2.39-1,7.32a17.72,17.72,0,0,1-4,9.49l-.94-.85a16,16,0,0,0,3.66-8.48l1.24-8.87,8.21,1.15a12.11,12.11,0,0,0-.64-2.19l1.36-.11c.25.74.5,1.58.75,2.51l8.65,1.21Zm-1.75,4.86-7.53-1.06-.53,3.77,6.9,1-1.21,8.61-1.24-.17.21-1.56-11-1.55-.22,1.55-1.27-.17,1.21-8.61,5.42.76,1.07-7.63,1.24.18-.37,2.63,7.53,1.06Zm-3.22,9.33.63-4.54L159.28,93.4l-.63,4.54Z"/><path class="cls-2" d="M195.05,103.7a1.74,1.74,0,0,1-1.92,1.6c-.48,0-1.12-.1-1.9-.21-.55-.08-1.07-.16-1.56-.25l-.34-1.39c1.22.29,2.38.51,3.47.67a.86.86,0,0,0,.63-.18.83.83,0,0,0,.35-.61l1.81-12.9-6.82-1q-.14,5.1,4.72,10.72l-1,.74c-2.89-3.45-4.49-6.67-4.81-9.63a23,23,0,0,1-7.35,7.83l-.75-1a20.31,20.31,0,0,0,7.74-8.84l-7.4-1-2.13,15.18-1.27-.18,2.31-16.46L187.57,88c0-.75.1-1.79.22-3.12l-2.24-.31.18-1.25,3.47.49c-.08.37-.14.75-.2,1.16a28.35,28.35,0,0,0-.24,3.19l8.3,1.17Z"/><path class="cls-2" d="M207.36,107.07l-1.19-.17.28-2-5.12-.72-.36,2.52-1.21-.17,2.37-16.85,2.2.31a22,22,0,0,0,2.27-3.85l1.15.41a40.76,40.76,0,0,1-2.15,3.62l4.06.57Zm-.74-3.42.79-5.63-5.13-.71-.78,5.62Zm1-6.82.72-5.11L203.17,91l-.72,5.11Zm14-4.44q-.88,5.33-1.9,9.85a25.08,25.08,0,0,1-1.52,5.29,2.6,2.6,0,0,1-1.14,1,5.16,5.16,0,0,1-2.32,0l-1.91-.3-.21-1.26,2.09.33c.71.09,1.16.15,1.36.16a1.16,1.16,0,0,0,.66-.21,1.5,1.5,0,0,0,.55-.57A18.39,18.39,0,0,0,218,104c.37-1.56.75-3.28,1.11-5.16s.7-3.72,1-5.5l-6.2-.87a33.07,33.07,0,0,1-3.54,4.29l-.87-.82a25.68,25.68,0,0,0,5.7-8.51l1.16.48a37.25,37.25,0,0,1-1.81,3.45Zm-5.87,10-1.09.57a25.51,25.51,0,0,0-2.67-6l1.11-.52A23.61,23.61,0,0,1,215.69,102.43Z"/><path class="cls-2" d="M244.06,111l-.58,1.16L235.07,111a16.27,16.27,0,0,1-5.21-1.45,8.34,8.34,0,0,1-3-2.57,26,26,0,0,1-3.25,2.9l-.89-.88a15,15,0,0,0,5.8-7l-4-.57.17-1.21c1.8-1.6,3.34-3,4.6-4.3l-4.39-.62.16-1.16L231,95l-.16,1.13c-1.66,1.65-3.17,3.09-4.53,4.34L230,101l-.16,1.16a14.26,14.26,0,0,1-2.2,3.94,8,8,0,0,0,2.35,2.21,14.91,14.91,0,0,0,5.5,1.55Zm-13.8-17.81-1,.73a19.52,19.52,0,0,0-2.9-4l1-.73A18.91,18.91,0,0,1,230.26,93.23Zm12.14,15.49-10.87-1.52.76-5.42,10.87,1.52Zm3.52-13-14.17-2,.17-1.21,6.32.89a16,16,0,0,0-.76-2.53l1.26-.22a14.55,14.55,0,0,1,.81,2.93l6.54.92Zm-2.19,5.75L232.2,99.82l.16-1.14,11.52,1.62Zm.44-3-11.55-1.62.16-1.16,11.55,1.62Zm-2.83,8.91.43-3-8.39-1.17-.43,3Z"/><path class="cls-2" d="M268.69,105.77l-20.59-2.89.19-1.33,20.59,2.89Z"/><path class="cls-2" d="M278.13,96.5c-.16.48-.51,1.31-1.06,2.49l-.81,1.78L274,117l-1.22-.17,1.85-13.15a23.33,23.33,0,0,1-2.32,3l-.55-1.25A35.29,35.29,0,0,0,277,96.05Zm12.18,22.75-1.24-.17.22-1.6-11.45-1.61-.22,1.6-1.25-.17,2.82-20,13.93,2Zm-.88-2.94,2.26-16.06-11.43-1.6L278,114.71Zm.54-11.39-4.17-.58-.38,2.74,2.88.4-.91,6.46-6.77-1,.91-6.46,2.7.38.39-2.74-4-.56.17-1.2,3.94.55.33-2.33,1.21.17-.33,2.33,4.17.58Zm-3.64,7.61.57-4-4.33-.61-.57,4Z"/><path class="cls-2" d="M301.86,104.73q-3,7.8-6.21,10.63l-.92-.89q3.16-3,5.95-10.25Zm3.79,14.88a1.59,1.59,0,0,1-.55,1,1.79,1.79,0,0,1-1,.46,8,8,0,0,1-1.78-.11c-.69-.1-1.24-.19-1.64-.28l-.33-1.33a15,15,0,0,0,3.53.39.72.72,0,0,0,.5-.67l2.63-18.71,1.26.18Zm9.9-2.06-1.28.35a81.49,81.49,0,0,0-2.5-11.61l1.29-.33A93.57,93.57,0,0,1,315.55,117.55Z"/><path class="cls-2" d="M338.6,125.36,318,122.47l.17-1.23,9.72,1.36.77-5.46-7.51-1.06.17-1.21,16.31,2.28-.17,1.22-7.55-1.06-.76,5.47,9.65,1.35Zm1-13.41-1.23-.17.46-3.27-5.33-.75-.61,4.35c-.06.44.2.7.77.78l5.56.78-.17,1.21-5.62-.79c-1.33-.18-1.91-.9-1.73-2.15l.61-4.35-3.09-.43q-1.63,5.59-8.51,6.12l-.53-1.21q6.6-.37,7.72-5.1l-5.45-.76-.44,3.18-1.22-.17.62-4.4,8.91,1.25a18.54,18.54,0,0,0-.66-2.2l1.2-.27a18.86,18.86,0,0,1,.77,2.66l8.6,1.2Z"/><path class="cls-2" d="M352.78,115.14l-7.08-1-1.76,12.52-1.26-.18,2.83-20.21,8.35,1.17Zm-1.07-1.33.3-2.17-5.84-.82-.31,2.17Zm.47-3.36.28-2-5.85-.82-.28,2ZM357,126.3,347.67,125l1.18-8.43,9.3,1.3Zm-1-1.34.36-2.55-6.87-1L349,124Zm.52-3.73.34-2.38-6.87-1-.34,2.37Zm5.24,6a1.87,1.87,0,0,1-.72,1.33,2.76,2.76,0,0,1-2,.24l-1.27-.18-.28-1.29c.37.08,1.08.2,2.13.35a.78.78,0,0,0,.6-.17.82.82,0,0,0,.3-.53l1.48-10.55-7-1,1.08-7.69,8.22,1.15Zm.43-12,.3-2.17-5.78-.82-.3,2.17Zm.47-3.36.28-2-5.78-.82-.28,2Z"/><path class="cls-2" d="M376.58,122.94a1.34,1.34,0,0,1-.7-1.27,1.16,1.16,0,0,1,.39-.65,1,1,0,0,1,.87-.24c.75.11,1.05.65.91,1.62a3.08,3.08,0,0,1-1.73,2.12l-.44-.46A2.12,2.12,0,0,0,376.58,122.94Z"/><path class="cls-2" d="M399,133.05a1.34,1.34,0,0,1-.58.93,1.6,1.6,0,0,1-1,.32q-.54,0-2.28-.27l-.33-1.27c.38.08.74.14,1.11.2a9,9,0,0,0,1.49.12.4.4,0,0,0,.39-.38l.54-3.87q-3.63,1.06-5.92,1.52l-.44-.88a13.86,13.86,0,0,1-1.68,3.83l-1-.78a15.75,15.75,0,0,0,1.89-5.52l.9-6.39,8.52,1.19Zm3.4-13-1.09.65a11.84,11.84,0,0,0-.71-1.56c-2.92,0-5.92-.12-9-.39l-.31-1.09a13.83,13.83,0,0,0,4.58-4.83l1.19.48a20.05,20.05,0,0,1-3.79,4.42q3.76.21,6.68.23a19.26,19.26,0,0,0-1.69-2.51l1.18-.54A18.52,18.52,0,0,1,402.41,120.05Zm-3.89,7.45.66-4.69-6-.84-.24,1.69a32.25,32.25,0,0,1,4.95,2.13l-.71,1a36.48,36.48,0,0,0-4.41-1.91l-.33,2.31c-.09.66-.21,1.31-.36,1.94A55.61,55.61,0,0,0,398.52,127.5Zm12,4.44a7.93,7.93,0,0,1-.87,2.56,2.07,2.07,0,0,1-1.05.94,5,5,0,0,1-2,0l-3.56-.55a1.8,1.8,0,0,1-1.22-.64,1.59,1.59,0,0,1-.32-1.29l1.25-8.94,1.21.17-.48,3.45,6.82,1-.16,1.13-6.82-1-.6,4.23c-.06.46.19.73.77.81,2.41.34,3.79.51,4.14.52a1.11,1.11,0,0,0,.87-.36,6.89,6.89,0,0,0,.84-2.49Zm.82-7.73-6.91-1a1.36,1.36,0,0,1-1-.62,1.61,1.61,0,0,1-.26-1.16l1-7.39,1.18.17-.41,3,6.8,1-.16,1.14-6.8-1-.44,3.11c-.05.37.13.59.56.65l6.57.93Z"/><path class="cls-2" d="M432.58,136.42a1.91,1.91,0,0,1-.52,1.18,1.3,1.3,0,0,1-1,.34c-.4,0-1.39-.16-3-.41l-.2-1.14c.42.1.92.2,1.51.28a5.08,5.08,0,0,0,1.67.08.54.54,0,0,0,.37-.47l.21-1.52-7.2-1-.59,4.18-1.14-.16.59-4.18-7.1-1-.46,3.26-1.2-.17.59-4.19,8.3,1.16.16-1.16-6.53-.91.66-4.74,5.85.82.84-.85,1.18.34-.65.71,7.09,1-.66,4.74-6.64-.94-.16,1.16,8.34,1.17Zm-6.2-11.09q-4.49-.09-11.47-.8l0-1q3.09.39,5.25.48l.2-1.43-4-.56.13-.91,4,.56.17-1.23-5.06-.71.13-.9,5.06.71.16-1.17-4-.56.12-.87,4,.56.15-1.07,1.19.17-.15,1.06,4,.56-.12.87-4-.56L422,119.7l4.36.61-.13.9-4.36-.61-.17,1.23,4,.56-.12.9-4-.55-.19,1.33a26.83,26.83,0,0,0,2.74.17c1.1,0,1.89.06,2.38.09Zm3.93,6.14.15-1-11.95-1.67-.15,1Zm.28-1.92.12-.91L418.76,127l-.13.9Zm5.52-7.73-2.14-.3-.56,4a1.36,1.36,0,0,1-.73,1.15,3.81,3.81,0,0,1-2,.09c-.34-.05-.68-.11-1-.19l-.25-1.17c.46.1.88.17,1.26.23a3.42,3.42,0,0,0,1.27,0,.43.43,0,0,0,.27-.36l.56-4-5.65-.79.14-1,5.65.79.32-2.24,1.19.17-.31,2.24,2.14.3Zm-5.92,2.08-1,.58a12.21,12.21,0,0,0-1.92-2.31l.94-.56A10.83,10.83,0,0,1,430.19,123.9Z"/><path class="cls-2" d="M442.41,132.76a42.62,42.62,0,0,1-4.73,7.21l-.93-1a36.79,36.79,0,0,0,4.6-7Zm.44-3.62-1,.81a21.62,21.62,0,0,0-3.29-3.67l.9-.87A25.59,25.59,0,0,1,442.85,129.14Zm1.33-6.31-1,.88a24.66,24.66,0,0,0-3-3.78l1-.85A29.09,29.09,0,0,1,444.18,122.83Zm2.57,8.14a20.61,20.61,0,0,1-1.59,6.19,7.83,7.83,0,0,1-3.55,3.28l-.84-1.05a7.22,7.22,0,0,0,2.79-2.21c.89-1.08,1.54-3.21,1.93-6.39Zm12.28.72-1.16.67a16.45,16.45,0,0,0-1.16-2.13q-7.12-.16-12.33-.52l-.14-1.27a13.08,13.08,0,0,0,5.51-4.32l-5-.7.18-1.24,5.67.8c.38-.53.87-1.33,1.47-2.39l1.24.52c-.2.37-.63,1.06-1.28,2.07l7.62,1.07-.17,1.24-8.26-1.16a15.82,15.82,0,0,1-4.65,4.27q4.61.35,9.31.45a17.69,17.69,0,0,0-1.83-2.33l1.09-.7A28.91,28.91,0,0,1,459,131.69Zm-9.67,9.84-1.24-.17,1.41-10,1.24.18Zm8.07.85-3.15-.44c-1.19-.17-1.71-.81-1.55-1.94l1.12-8,1.21.17L454,140c-.06.42.15.67.63.74l3,.42Z"/><path class="cls-2" d="M466.59,135.81a35.29,35.29,0,0,1-5.07,7.31l-.86-.94a34.61,34.61,0,0,0,4.9-7.12Zm.69-3.82-1,.86a27.32,27.32,0,0,0-3.74-3.37l1-.83A28.06,28.06,0,0,1,467.28,132Zm1.23-5.89-1.05.82a25,25,0,0,0-3.76-3.61l1-.85A24.3,24.3,0,0,1,468.51,126.1ZM481,136l-10.93-1.53-1.14,8.1c1.57-.24,3.19-.57,4.86-1l-.08,1.19a55.85,55.85,0,0,1-6.36,1.19l-.28-1.12a.89.89,0,0,0,.63-.77L470,125.68l5.73.8a14.47,14.47,0,0,0-.82-2.29l1.24-.24a24.22,24.22,0,0,1,1,2.72l5.08.72Zm-1.08-1.37.34-2.42-9.69-1.36-.34,2.42Zm.51-3.63.36-2.56-9.69-1.36-.36,2.56Zm1,14.18-.94.83a15.53,15.53,0,0,1-4.24-4.27,15,15,0,0,1-2.31-5.22l1.22-.25a16.51,16.51,0,0,0,1.27,3.42,23.68,23.68,0,0,0,4.34-2.72l.73,1.07a32.5,32.5,0,0,1-4.42,2.71A16.47,16.47,0,0,0,481.45,145.15Z"/><path class="cls-2" d="M494.76,131.8a17,17,0,0,1-3,2.14,14.13,14.13,0,0,1,1,8.06,18.59,18.59,0,0,1-.53,2.51,4.18,4.18,0,0,1-.83,1.8,2.6,2.6,0,0,1-1.1.65,4.09,4.09,0,0,1-1.78,0l-1.11-.18-.21-1.28,2.23.34a1.26,1.26,0,0,0,1.23-.62,8.42,8.42,0,0,0,.87-3.21c0-.36.09-.75.13-1.17a24.28,24.28,0,0,1-6.45,3.55l-.58-1.12a20.93,20.93,0,0,0,7.06-3.83,7.16,7.16,0,0,0-.17-2.14,18,18,0,0,1-5.72,2.87l-.56-1.1a18.17,18.17,0,0,0,6-3,11.53,11.53,0,0,0-.54-1.63,41.28,41.28,0,0,1-4.3,1.76l-.62-1.13a26.24,26.24,0,0,0,5.73-2.45,13.7,13.7,0,0,0-1.16-3.27c-1.1.24-2.14.43-3.11.56l-.45-1.2a18.54,18.54,0,0,0,7.74-2.12l.44,1a15.77,15.77,0,0,1-3.44,1.41,14.9,14.9,0,0,1,1.05,2.84,12.14,12.14,0,0,0,1.37-1.11ZM489.31,133l-1.09.45a9.13,9.13,0,0,0-.81-2.51l1-.41A6.8,6.8,0,0,1,489.31,133Zm14.6,16.14-1.22-.17.23-1.66-7.74-1.08-.23,1.66-1.22-.17,1.78-12.71,10.18,1.43Zm-3.26-17.36-1.76-.25-.38,2.68-1.2-.17.37-2.68L495,131l.16-1.13,2.69.37.43-3,1.2.17-.42,3,1.76.25Zm-2,13.77.54-3.83-3.3-.46-.54,3.83Zm.69-5,.53-3.74-3.3-.46-.52,3.73Zm3.75,5.59.54-3.83-3.2-.45-.54,3.83Zm.7-5,.52-3.74-3.2-.45-.52,3.74Zm3.48-8.51-2.66-.37-.38,2.68-1.24-.17.38-2.68-1.69-.24.16-1.14,1.69.24.42-3,1.24.17-.42,3,2.66.38Z"/><path class="cls-2" d="M518.78,131a20.6,20.6,0,0,1-3.36,2.92q1.47,3.15.66,8.92a24,24,0,0,1-1.11,4.87,3.51,3.51,0,0,1-1.78,2.22,7.1,7.1,0,0,1-3.49,0l-.23-1.36a15.23,15.23,0,0,0,1.76.33,2.55,2.55,0,0,0,1.6-.14,4.16,4.16,0,0,0,1.1-2,21.5,21.5,0,0,0,1-4.18c.1-.72.19-1.53.27-2.44a25.17,25.17,0,0,1-5.48,3.79l-.62-1.16a21.44,21.44,0,0,0,6.07-4.33,10,10,0,0,0-.75-3.77,27.14,27.14,0,0,1-3.52,1.84l-.66-1.08a29.31,29.31,0,0,0,3.6-1.9,14.8,14.8,0,0,0-2.54-3.27l1-.76a18.15,18.15,0,0,1,2.56,3.35,16.51,16.51,0,0,0,2.91-2.56ZM530.72,135q-.65,4.54-1.6,9.87a37.13,37.13,0,0,1-1.36,6.07,2.37,2.37,0,0,1-1.11,1.1,5.77,5.77,0,0,1-2.8,0l-1.37-.22-.37-1.3,1.44.25a6.22,6.22,0,0,0,2.48.07,1.52,1.52,0,0,0,.73-.71,38.43,38.43,0,0,0,1.09-5q.84-4.52,1.49-9.12l-8.09-1.13a18.41,18.41,0,0,1-3.15,3.27l-1-.77a25.43,25.43,0,0,0,5.61-7l1.15.53c-.74,1.24-1.34,2.19-1.79,2.84Zm-5.85,12.64-6.58-.93,1.23-8.72,6.58.92Zm-1.06-1.37.89-6.3-4.1-.58-.89,6.3Z"/><path class="cls-2" d="M554.87,139.15l-11.76-1.65a29.78,29.78,0,0,1-2.13,2.43l11.69,1.63L550.93,154a1.56,1.56,0,0,1-.86,1.34,7.85,7.85,0,0,1-3.18,0c-.63-.09-1.24-.2-1.84-.33l-.41-1.31c.71.16,1.47.3,2.29.41a8.23,8.23,0,0,0,2.34.16.61.61,0,0,0,.45-.56l.44-3.1-11.7-1.64a10,10,0,0,1-3.36,4.82l-1.09-.86q3.32-2.22,4.24-8.8.11-.71.21-1.77a29,29,0,0,1-4.8,3l-.82-1.07a24.46,24.46,0,0,0,8.79-6.89l-7.44-1.05.18-1.23,8.15,1.15c.58-.76,1.17-1.63,1.78-2.62l1.23.54c-.6.95-1.12,1.71-1.55,2.28l11.07,1.55Zm-4.55,10.2.4-2.85-11.38-1.6c-.18,1.22-.35,2.17-.52,2.84Zm.57-4.08.38-2.72L540,141l-.38,2.71Z"/><path class="cls-2" d="M112.6,114l-4.85-.68-.14,1,4,.57-.72,5.11-4-.57-.15,1,4,.57-.15,1-4-.56-.18,1.29-1.16-.17.18-1.28-5.28-.74.14-1.05,5.28.74.15-1-4.13-.58.72-5.11,4.13.58.14-1-5-.7.14-1,5,.7.21-1.5,1.16.17-.21,1.49,4.85.68Zm4.07,19.23-1.21-.17.15-1.09-12.77-1.79-.15,1.09-1.23-.17,1.12-8,15.21,2.13Zm-10.8-14.93.15-1.09-3-.43-.16,1.1Zm9.9,12.54L116,129l-12.76-1.79L103,129Zm-9.61-14.58.14-1-3-.42-.15,1Zm10,11.67.23-1.7-12.76-1.79-.24,1.7Zm-6.2-9.05.15-1.1-2.95-.41-.15,1.09Zm.28-2,.15-1-3-.42-.14,1Zm11.2,2.25-2.22-.31-.81,5.77-1.2-.16.81-5.78-3.66-.51a14.86,14.86,0,0,1-2.42,5.57l-1-.82q2.09-2.61,2.85-9.48a37.72,37.72,0,0,0,7.26-.73l.49,1.14a40.13,40.13,0,0,1-6.67.74c-.08.68-.2,1.49-.36,2.44l7.05,1Z"/><path class="cls-2" d="M129.22,133.78l-1.24-.17.26-1.88-3.31-.47-.33,2.4-1.23-.17L126,114.78l5.78.82Zm-.81-3.28.9-6.4-3.31-.46-.89,6.39Zm1.07-7.59.87-6.25-3.3-.46-.88,6.24Zm14.91,5.83-2.64-.37-.86,6.15A1.7,1.7,0,0,1,140,136a5.59,5.59,0,0,1-2.58,0l-1.36-.22-.32-1.35c.76.17,1.43.29,2,.37a3.76,3.76,0,0,0,1.51,0,.67.67,0,0,0,.4-.58l.85-6.1-9.28-1.31.17-1.21,9.29,1.3.3-2.21,1.22.17-.31,2.21,2.64.37Zm.68-8.85-5.53-.78-.49,3.45,4.9.68-.17,1.2-11.13-1.56.17-1.2,5,.7.49-3.44-5.82-.82.18-1.25,5.81.81.37-2.6,1.24.18-.37,2.6,5.54.77Zm-8.51,12.65-1.15.49a20.06,20.06,0,0,0-2.57-4.07l1.15-.57A25.15,25.15,0,0,1,136.56,132.54Z"/><path class="cls-2" d="M154.55,138l-1.2-.17.29-2-5.13-.72-.35,2.52-1.21-.17,2.37-16.85,2.2.31a23.31,23.31,0,0,0,2.27-3.85l1.15.41c-.4.8-1.12,2-2.15,3.62l4.06.57Zm-.74-3.41.79-5.63-5.13-.72-.79,5.63Zm1-6.83.71-5.1-5.13-.72-.71,5.1Zm14-4.44q-.88,5.33-1.91,9.85a25.14,25.14,0,0,1-1.51,5.29,2.55,2.55,0,0,1-1.15,1,5.11,5.11,0,0,1-2.31,0l-1.91-.3-.22-1.26,2.1.33c.7.1,1.15.15,1.35.16a1.07,1.07,0,0,0,.66-.2,1.63,1.63,0,0,0,.56-.58,17.64,17.64,0,0,0,.75-2.68q.57-2.34,1.12-5.16t1-5.5l-6.19-.87a33.84,33.84,0,0,1-3.54,4.3l-.88-.82a25.42,25.42,0,0,0,5.7-8.52l1.17.48c-.57,1.22-1.17,2.37-1.81,3.46Zm-5.87,10-1.1.57a25.51,25.51,0,0,0-2.67-6l1.12-.52A24,24,0,0,1,162.88,133.39Z"/><path class="cls-2" d="M192.19,133.16l-5.63-.79a17,17,0,0,1-4.17,5.33,88.29,88.29,0,0,1,8,4.92l-.91,1a87.85,87.85,0,0,0-8.28-5.07,23.44,23.44,0,0,1-10.35,2.41l-.51-1.32a23.24,23.24,0,0,0,9.46-1.82c-1.73-1-3.86-2.07-6.41-3.25A26.07,26.07,0,0,0,177.1,131l-5.64-.79.18-1.23,6.41.9a44.14,44.14,0,0,0,3-4.08l1.15.63q-1.11,1.65-2.7,3.66l6.23.88a12.91,12.91,0,0,0,.87-1.92l1.16.56-.67,1.55,5.22.73Zm-.39-3.49-1.25-.17.45-3.24L174.54,124l-.46,3.24-1.31-.19.63-4.46,9,1.26a17.74,17.74,0,0,0-.84-2.24l1.21-.38a18.41,18.41,0,0,1,1,2.81l8.69,1.22Zm-6.67,2.5-6.48-.91a37.08,37.08,0,0,1-2.87,3c1.41.63,3.2,1.55,5.38,2.74A13.8,13.8,0,0,0,185.13,132.17Z"/><path class="cls-2" d="M216.29,135.5c-1.2.82-2.48,1.62-3.86,2.42l-.92,6.53a1.85,1.85,0,0,1-.64,1.32,2.44,2.44,0,0,1-1.68.28c-.78-.07-1.58-.16-2.39-.27l-1.44-.23-.16-1.28c1.16.21,2.1.36,2.82.46a5.7,5.7,0,0,0,1.88.1.67.67,0,0,0,.39-.62l.78-5.54q-5.37,3.39-16.75,5.05l-.41-1.25q9.68-1.25,15.33-4.22c-4.86,0-9.53-.16-14-.51l-.13-1.28c.8.11,1.63.19,2.49.23l1.54-11,3,.42a12.25,12.25,0,0,0,2.27-2l1.41.49a20.53,20.53,0,0,1-2,1.78l10,1.4-1.19,8.56a27.38,27.38,0,0,0,3-1.89Zm-5,1.61.23-1.64-12.22-1.71-.42,3Q203.77,137.16,211.29,137.11Zm.41-2.9.3-2.14-12.22-1.71-.3,2.13Zm.48-3.4.28-2-12.22-1.72-.29,2Z"/><path class="cls-2" d="M238.63,148.67l-.66,1.2-8.74-1.23c-2.58-.36-4.36-1.37-5.35-3a56.45,56.45,0,0,1-5.35,1.89l-.65-1.23a46.53,46.53,0,0,0,11.51-4.87,36.36,36.36,0,0,0,8.21-7.24l-16.49-2.31.19-1.31,9.07,1.27a14,14,0,0,0-1.37-3.61l1.39-.31a19.56,19.56,0,0,1,1.39,4.12l7.55,1.06-.18,1.31a36.64,36.64,0,0,1-14.07,10.72q1.18,1.81,4.35,2.26Z"/><path class="cls-2" d="M263.77,137a19.14,19.14,0,0,1-2.3,3.79l-1.16-.54a13.63,13.63,0,0,0,1.5-2.29l-8.64-1.21-.24,1.66,6.42.42-.07,1.17-6.5-.47-.14,1a.63.63,0,0,0,.09.41.39.39,0,0,0,.31.25l8,1.12-.16,1.14-8.14-1.14c-1.06-.15-1.52-.7-1.39-1.67l.16-1.15-3.66-.27,0-1.15,3.8.28.25-1.75-5-.7-.63,4.52a24.16,24.16,0,0,1-3.74,10.09l-1-.84a20.77,20.77,0,0,0,3.59-9.3l.82-5.85,6.63.93.58-4.13,1.33.18-.18,1.28,9,1.26-.16,1.15-9-1.26-.24,1.71Zm-1.26,15.08-.51,1.2c-4.8-.75-7.78-1.26-8.95-1.55a8.19,8.19,0,0,1-3.19-1.59,14.92,14.92,0,0,1-3.83,1.41l-.82-1.11a11.67,11.67,0,0,0,3.75-1.14,11.42,11.42,0,0,1-1.38-2.39A7.48,7.48,0,0,1,246,148l-.73-.93a10.92,10.92,0,0,0,4.49-5.25l1.13.51a17.8,17.8,0,0,1-.85,1.58l4,.57-.16,1.18a12.35,12.35,0,0,1-2.94,3.78,9.19,9.19,0,0,0,2.86,1.25C254.86,151,257.77,151.46,262.51,152.11Zm-10-6.61-3.24-.45q-.12.16-.84,1a8.2,8.2,0,0,0,1.56,2.55A9.08,9.08,0,0,0,252.5,145.5Zm10,2.16a10.18,10.18,0,0,1-.58,2.26,1.54,1.54,0,0,1-.65.64,3.46,3.46,0,0,1-1.75,0,1.33,1.33,0,0,1-1.31-1.67l.44-3.16-1.9-.27a6.9,6.9,0,0,1-2.78,4.63l-.85-.85a6.55,6.55,0,0,0,2.68-5.13l4.26.6-.61,4.3c0,.27.17.44.61.5a.76.76,0,0,0,.76-.23,6.54,6.54,0,0,0,.56-2.13Z"/><path class="cls-2" d="M276.23,147.24a1.36,1.36,0,0,1-.7-1.27,1.19,1.19,0,0,1,.39-.65,1,1,0,0,1,.88-.24q1.11.15.9,1.62a3.08,3.08,0,0,1-1.72,2.11l-.45-.45A2.19,2.19,0,0,0,276.23,147.24Z"/><path class="cls-2" d="M309.92,158.7l-.45,1.18c-3.1-.42-5.91-.83-8.42-1.25a18.78,18.78,0,0,1-5.56-1.6,8.12,8.12,0,0,1-2.85-2.43,16.08,16.08,0,0,1-3.11,2.86l-.82-.91a15.76,15.76,0,0,0,5.58-7l-3.69-.51.16-1.18a54.38,54.38,0,0,0,4.25-4.44l-4.08-.57.17-1.16,5.54.77-.16,1.17c-1.08,1.25-2.45,2.73-4.12,4.46l3.35.47-.17,1.17a15.15,15.15,0,0,1-2.19,3.9,6.92,6.92,0,0,0,1.7,1.67,9.46,9.46,0,0,0,2,1.09,22.52,22.52,0,0,0,3.52.87q2.52.48,6,1C307.74,158.44,308.86,158.58,309.92,158.7Zm-13.75-18.17-1,.74a20.69,20.69,0,0,0-2.83-3.8l.9-.77A18.21,18.21,0,0,1,296.17,140.53Zm13.58,15.64-12.36-1.73,1.42-10.14a16.55,16.55,0,0,1-1.85,1.77L296.3,145a22.77,22.77,0,0,0,5.32-7.23l1.14.48c-.56,1.1-1.16,2.17-1.8,3.19l4.2.59a17.58,17.58,0,0,0-.65-3.12l1.25-.22c.35,1.46.59,2.64.74,3.52l4.9.69-.17,1.16-5.35-.75-.37,2.66,4.83.68-.16,1.15-4.83-.68-.4,2.82,4.83.67-.16,1.18-4.83-.68-.44,3.16,5.56.78Zm-6.63-2.09.44-3.15-4.33-.61-.44,3.16Zm.6-4.32.4-2.82-4.33-.61-.4,2.82Zm.56-4,.37-2.66-4.33-.61-.37,2.66Z"/><path class="cls-2" d="M334.71,153.4l-20.59-2.88.19-1.34,20.59,2.89Z"/><path class="cls-2" d="M345.21,155.58a20.81,20.81,0,0,1-7.31,4.28l-.72-1.07a17.62,17.62,0,0,0,7.12-4.13Zm13.62-.85-9.55-1.34L348.21,161l-1.22-.17,1.07-7.65-10-1.4.17-1.22,3.86.54.83-6,1.23.17-.83,6,4.89.69,1-7.44,1.24.18-.43,3,7.6,1.06-.16,1.2-7.6-1.07-.45,3.21,9.52,1.33Zm-1.94,2.46q-3.47,4.76-7.55,6.18a25.94,25.94,0,0,1-10.29,1l-.48-1.3a25.11,25.11,0,0,0,10.07-.66q3.93-1.27,7.21-5.9Z"/><path class="cls-2" d="M368.57,164.91a25.33,25.33,0,0,1-7.24,2.64l-.74-1.16a21.66,21.66,0,0,0,7.09-2.37Zm13-.1-20.63-2.89.17-1.21,1.79.25,1.64-12.37a21,21,0,0,0,5-1.07l.45,1.15a28.12,28.12,0,0,1-4.34,1c-.17,1-.3,1.94-.38,2.73l3.61.5-.16,1.17-3.59-.5c-.12,1.07-.26,2.1-.44,3.11l3.43.48-.17,1.22-3.38-.47-.45,3.2,14.69,2.06c.31-1.84.48-2.92.53-3.23l-3.26-.45.16-1.19,3.29.46c.08-.5.23-1.53.46-3.1l-3.29-.47.17-1.19,3.28.46c.14-.64.26-1.32.36-2,.05-.4.1-.76.13-1.1l-3.23-.45.17-1.16,4.49.63c-1,6.25-1.66,10.57-2.07,13l1.78.25Zm-10.34-9a13,13,0,0,1-2.84,5.4l-.91-.93a10.25,10.25,0,0,0,2.65-4.91Zm4.93-4.57-4.09-.57c-.26.93-.51,1.75-.73,2.47l4.32.6q-1,6.33-1.74,7.21a2.06,2.06,0,0,1-2.07.7c-.5-.07-.83-.13-1-.17l-.23-1.27c.55.11,1,.18,1.3.23a1.09,1.09,0,0,0,1.28-.58,34.16,34.16,0,0,0,1.12-5.12l-4.6-.65c.46-1.32,1.1-3.46,1.94-6.41l1.14.28c-.13.5-.27,1-.43,1.59l3.95.56Zm4.53,18-1,.73a37.61,37.61,0,0,0-6.05-4.27l1-.77A39.28,39.28,0,0,1,380.65,169.2Z"/><path class="cls-2" d="M405.21,171.27l-.88,1a22,22,0,0,1-8.26-9.34l-1.3,9.23-1.2-.19,1.28-9.14a32.68,32.68,0,0,1-10.2,6.66l-.61-1.1q7.77-3.42,11.12-7.73l.82-5.86-9.34-1.31.16-1.2,9.35,1.31.34-2.43,1.2.17-.34,2.43,9.64,1.35-.17,1.2L397.19,155l-.82,5.84a21.1,21.1,0,0,0,3.54,5.93A20.28,20.28,0,0,0,405.21,171.27Zm-12.37-9.52-1,.85a12.66,12.66,0,0,0-2.1-3.14,15.11,15.11,0,0,1-3.63,3.31l-.82-1a13.08,13.08,0,0,0,5.46-6.45l1.13.46a13.14,13.14,0,0,1-1.39,2.65A19.2,19.2,0,0,1,392.84,161.75Zm12.2,2.52-.77,1a31,31,0,0,0-3-4.1,11.26,11.26,0,0,1-2.21,2.62l-.85-.92A15.35,15.35,0,0,0,402,157l1.13.4a22.18,22.18,0,0,1-1.2,2.69A27,27,0,0,1,405,164.27Z"/><path class="cls-2" d="M415.13,173.39l-1.29-.18.31-2.16-3.8-.54-.37,2.64-1.24-.18,2.54-18.05,6.32.88Zm-.8-3.61,1.81-12.93-3.8-.53-1.81,12.93Zm14.79,2.33a9.12,9.12,0,0,1-1,3.07,2.21,2.21,0,0,1-1.43,1,17.05,17.05,0,0,1-3.78-.27c-1.29-.18-2.47-.37-3.55-.58a7.41,7.41,0,0,1-1.94-.51,1.43,1.43,0,0,1-.52-.63,1.59,1.59,0,0,1-.12-.93,3.08,3.08,0,0,1,.83-1.5,26,26,0,0,1,3.59-2.9q2.85-2.06,5.7-3.73L418.73,164l.17-1.23,9.8,1.37-.22,1.52q-2.37,1.33-4.73,2.94a46.84,46.84,0,0,0-3.91,2.91,18.35,18.35,0,0,0-1.67,1.48.76.76,0,0,0-.13.3c-.05.37.17.61.65.72s2.76.45,6.81,1a1.59,1.59,0,0,0,1.49-.52,6.46,6.46,0,0,0,.93-3.06ZM430.47,161l-9.75-1.36a17.49,17.49,0,0,1-2.5,2.3l-.86-1a20.49,20.49,0,0,0,5.3-6.12l1.12.57a30.38,30.38,0,0,1-2.06,3l8.93,1.25Z"/><path class="cls-2" d="M440.72,171.7l-5.76-.81-.7,5c2-.64,3.42-1.11,4.12-1.39a11.49,11.49,0,0,0-.68-1.67l1-.56a14.47,14.47,0,0,1,1.35,3.9l-1,.58a5.26,5.26,0,0,0-.33-1.13q-3,1.11-5.72,1.93l-.46-1.23a1.46,1.46,0,0,0,.57-.94l1.72-12.24,7,1Zm2.46-9.6-1,.67a21.46,21.46,0,0,0-3-4.05,13.94,13.94,0,0,1-2.17,2.05l4.07.57-.17,1.16-4.21-.59.13-.95a20.66,20.66,0,0,1-2.63,1.87l-.67-1.09A16.84,16.84,0,0,0,439,157l1.11.55a1.12,1.12,0,0,1-.2.36A23.21,23.21,0,0,1,443.18,162.1Zm-3.5,8.19.3-2.07-4.55-.64-.29,2.07Zm.45-3.21.28-2-4.55-.63-.27,1.95Zm12.14,12.46-.89.82a17,17,0,0,1-3.65-4.05,20,20,0,0,1-4.88,2.61l-.66-1.09a16.35,16.35,0,0,0,4.92-2.6c-1.07-2.33-1.53-5.55-1.37-9.64l-.88-.13a55.06,55.06,0,0,1-1.7,8.26,14.8,14.8,0,0,1-2.59,4.9l-1-.72a14.15,14.15,0,0,0,2.48-4.53,42.38,42.38,0,0,0,1.53-7.28l1.06-7.51L454.71,160l-.16,1.19-8.88-1.25-.61,4.35,8.05,1.13q-1.22,6.71-4.46,10.09A15.45,15.45,0,0,0,452.27,179.54Zm-.63-13.13-4.7-.66a18.46,18.46,0,0,0,1.11,8.57A16.77,16.77,0,0,0,451.64,166.41Z"/><path class="cls-2" d="M463.52,181.38l-1.19-.17.28-2-5.12-.72-.36,2.52-1.2-.17L458.29,164l2.2.31a22.63,22.63,0,0,0,2.27-3.85l1.15.41c-.4.8-1.11,2-2.15,3.62l4.06.57Zm-.74-3.41.79-5.63-5.13-.72-.79,5.63Zm1-6.83.72-5.1-5.13-.72-.72,5.1Zm14-4.44q-.89,5.33-1.9,9.85a24.86,24.86,0,0,1-1.52,5.29,2.54,2.54,0,0,1-1.14,1,5.16,5.16,0,0,1-2.32,0l-1.91-.3-.21-1.26,2.09.33c.7.1,1.16.15,1.36.16a1,1,0,0,0,.66-.21,1.5,1.5,0,0,0,.55-.57,18.39,18.39,0,0,0,.76-2.68q.56-2.34,1.11-5.16t1-5.5l-6.2-.87a33.84,33.84,0,0,1-3.54,4.3l-.88-.83a25.45,25.45,0,0,0,5.71-8.51l1.16.48a37.25,37.25,0,0,1-1.81,3.45Zm-5.87,10-1.09.57a25.51,25.51,0,0,0-2.67-6l1.11-.52A23.61,23.61,0,0,1,471.85,176.74Z"/><path class="cls-2" d="M501,178.86l-.69,1.15a32.33,32.33,0,0,1-9.45-4,42.46,42.46,0,0,1-10.05,1.2l-.6-1.29a41.29,41.29,0,0,0,9.32-.87,20.37,20.37,0,0,1-3.17-3.21,31.6,31.6,0,0,1-3.64,1.82l-.73-1.07a16,16,0,0,0,7-4.6l1.17.67a11.36,11.36,0,0,1-1.33,1.39l9.21,1.29-.16,1.19a19.65,19.65,0,0,1-5.56,3A31.06,31.06,0,0,0,501,178.86Zm-.21-5.92-1.2-.17.53-3.8-16.53-2.31-.52,3.72-1.25-.17.69-4.9,9.14,1.28a6.45,6.45,0,0,0-.81-1.83l1.39-.22a19.32,19.32,0,0,1,.87,2.26l8.39,1.17Zm-4.34,13.52-1.23-.17.14-1-11.65-1.63-.14,1-1.23-.17.92-6.58,14.11,2Zm-.91-2.45.43-3.09-11.65-1.63-.43,3.09Zm.51-11.74-8.49-1.19-.14.11a15.31,15.31,0,0,0,3.56,3.48A16.62,16.62,0,0,0,496,172.27Z"/><path class="cls-2" d="M523.67,189.35l-1.06.81a23.64,23.64,0,0,1-7.52-15.7q-2.67,8.13-11.46,13l-.72-1.14a23.27,23.27,0,0,0,5.59-3.93,20.5,20.5,0,0,0,4.27-5.63,29.33,29.33,0,0,0,2.52-8.85l1.33.19a24.08,24.08,0,0,0,1,12A23.05,23.05,0,0,0,523.67,189.35Z"/><path class="cls-2" d="M547.52,190.92l-9.66-1.36-.37,2.66-1.21-.17.37-2.66L527,188l.17-1.23,9.68,1.35.32-2.31-5.69-.79a13.45,13.45,0,0,1-2,1.47l-.93-.94a16.58,16.58,0,0,0,4-3.21l1.12.62c-.32.36-.64.69-1,1l4.69.66.25-1.78,1.2.17-.24,1.78,7.61,1.07-.17,1.19L538.36,186l-.33,2.31,9.66,1.36Zm2-15.21-9.95-1.4a21,21,0,0,1-3.05,1.3c3.38.27,5.32.4,5.84.41.31-.19.64-.42,1-.67l1.15.8c-1.77,1.1-3,1.82-3.56,2.17l7.71,1.08-.45,3.2-1.19-.17.29-2-8.16-1.14a25.88,25.88,0,0,1-4.25,1.64q2.79.41,7.59.6a2.09,2.09,0,0,0-.58-.66l1.06-.59a16.78,16.78,0,0,1,2.79,3.4l-1.09.5a12.27,12.27,0,0,0-1.09-1.5q-5.88-.31-12.25-1l-.05-1a22.77,22.77,0,0,0,5.69-1.65l-6.78-.95-.28,2-1.21-.17.45-3.2,9.78,1.37a18.14,18.14,0,0,0,1.91-1.14q-4.38-.33-6.9-.58l0-.87a13.48,13.48,0,0,0,3.8-1.38l-8.36-1.17.16-1.19,9.53,1.34a10.3,10.3,0,0,0-.73-1.54l1.28-.28a14.15,14.15,0,0,1,.86,2l9.2,1.29Z"/><path class="cls-2" d="M96.87,162.92a27.18,27.18,0,0,1-2.36,5.68l-1.05-.77a24,24,0,0,0,2.25-5.17Zm7.36-9.88a41,41,0,0,1-7.38,7.45,21.81,21.81,0,0,0,4-.34,9.82,9.82,0,0,0-.41-1.59l1.18-.09a19.5,19.5,0,0,1,.87,3.75l-1.2.29a9.24,9.24,0,0,0-.19-1.26,28.07,28.07,0,0,1-6.28.43l-.15-1a51.07,51.07,0,0,0,5.54-4.8,34.74,34.74,0,0,1-4.21-.06l.07-1a24.59,24.59,0,0,0,5.28-6.61l1.16.62A27.39,27.39,0,0,1,98,154.68a16.49,16.49,0,0,0,3.37,0,25.12,25.12,0,0,0,1.8-2.24Zm-5,15.35-1.33.13a30.55,30.55,0,0,0,.21-5.43l1.17,0A30.69,30.69,0,0,1,99.25,168.39ZM102.5,166l-1.14.11a12.4,12.4,0,0,0-.7-2.91l1.18,0A12.74,12.74,0,0,1,102.5,166Zm5-5a10.75,10.75,0,0,1-5.86,7.78l-.65-1.11a8.84,8.84,0,0,0,5-5.72l-2.82-.4.16-1.14Zm7.12,8.37-1,.81a14.88,14.88,0,0,1-4.24-5.85l-.62,4.4a1.87,1.87,0,0,1-.64,1.21,3.28,3.28,0,0,1-2.33.2,10.39,10.39,0,0,1-1.08-.21l-.24-1.24c.34.07.79.14,1.36.22a3.3,3.3,0,0,0,1.34,0,.59.59,0,0,0,.34-.5l1.3-9.3-4.6-.64,1-7.4,3.18.45a14.85,14.85,0,0,0,1.65-2.19l1.11.68a10.51,10.51,0,0,1-1.35,1.71l5.68.79-1,7.4-4.4-.62-.38,2.7a8.33,8.33,0,0,0,.5,1.44,14.48,14.48,0,0,0,3.33-2.52l.7,1.07a21.5,21.5,0,0,1-3.51,2.54A16.45,16.45,0,0,0,114.63,169.34Zm-1.26-10.72.28-2-7.77-1.09-.29,2Zm.44-3.17.28-2-7.77-1.09-.28,2Z"/><path class="cls-2" d="M128.35,164.86a1.34,1.34,0,0,1-.7-1.27,1.11,1.11,0,0,1,.39-.65,1,1,0,0,1,.87-.24c.75.11,1.05.65.91,1.62a3.07,3.07,0,0,1-1.73,2.11l-.44-.45A2.22,2.22,0,0,0,128.35,164.86Z"/><path class="cls-2" d="M161.67,170.69l-1.18-.16.52-3.7-7.57-1.07-.37,2.64,6.44.9-.73,5.21a1.75,1.75,0,0,1-.69,1.29c-.38.26-1.61.25-3.7,0l-.25-1.34a26.42,26.42,0,0,0,3.1.35q.3,0,.36-.42l.56-4-5.26-.73-1,6.87-1.21-.17,1-6.87-5.28-.74-.81,5.82-1.21-.17,1-7,6.48.91.37-2.63-7.53-1.06-.52,3.7-1.26-.18.68-4.89,18.76,2.63Zm2.36-10.1-4.1-.58-.27,1.89a.63.63,0,0,0,.13.47.62.62,0,0,0,.42.25l3,.42-.16,1.13-3-.42c-1.19-.17-1.71-.8-1.55-1.89l.28-2-2.45-.34-.53,3.79-5.7-.8.53-3.79-2.4-.34a5.85,5.85,0,0,1-4,4.38l-.85-1c2-.73,3.2-1.91,3.52-3.52l-3.52-.49.18-1.22,3.66.51.39-2.25,1.16.16a21.83,21.83,0,0,1-.36,2.26l2.35.33.32-2.23,1.23.17-.32,2.23,3.24.46.31-2.23,1.23.17-.31,2.23,2.45.34.32-2.26,1.22.17-.32,2.26,4.11.58Zm-9.37,1.35.37-2.61-3.24-.46-.36,2.61Z"/><path class="cls-2" d="M168.1,173.22a29.61,29.61,0,0,1-2.17,5.13l-1.06-.59a23.6,23.6,0,0,0,2.11-5Zm6.42-1-1.2.41a5.27,5.27,0,0,0-.16-1.24c-1.89.19-4.24.31-7.06.34l-.2-1.16a25.11,25.11,0,0,0,5.54-4.75c-1,0-2.42.06-4.37,0l-.1-1a23.94,23.94,0,0,0,5.39-6.8l1.07.65a26.86,26.86,0,0,1-4.57,6,28.3,28.3,0,0,0,3.6-.05l2-2.48,1.06.66a33.65,33.65,0,0,1-7.4,7.68,30.11,30.11,0,0,0,4.77-.3,15.91,15.91,0,0,0-.49-1.67l1.08-.4A22.54,22.54,0,0,1,174.52,172.24Zm-4.22,5.87-1.33.15a32.42,32.42,0,0,0,.44-5l1.09,0A28.8,28.8,0,0,1,170.3,178.11Zm3.14-.47-1.12.24q-.1-2.1-.39-4.29l1.09-.24A21.26,21.26,0,0,1,173.44,177.64ZM183.79,181l-1.22-.17.19-1.37L176,178.5l-.19,1.35-1.22-.18,1.28-9.07,9.22,1.29Zm3.66-13.39-1,.83a23.1,23.1,0,0,1-4.52-6.94,24.33,24.33,0,0,1-6.56,5.24l-.7-1a22.08,22.08,0,0,0,7.3-6.28l1.14.55a1.76,1.76,0,0,1-.33.46A20.31,20.31,0,0,0,187.45,167.6Zm-4.52,10.66.74-5.32-6.79-.95-.74,5.31Zm1.44-9.22-7.13-1,.16-1.15,7.14,1Z"/><path class="cls-2" d="M196.82,167.39a33.7,33.7,0,0,1-2.39,2.86l-1.67,11.93-1.25-.17L193,171.72A19.39,19.39,0,0,1,190,174l-.57-1.22a24.53,24.53,0,0,0,6.34-6.14Zm.32-5.22a25.28,25.28,0,0,1-5.86,4.47l-.67-1.16a20.51,20.51,0,0,0,5.45-4.09Zm12.27,21.19-.82,1.17a21.12,21.12,0,0,1-5.2-3.94,16.4,16.4,0,0,1-6.11,2.32l-.41-1.22a16.57,16.57,0,0,0,5.71-2,15.22,15.22,0,0,1-2.88-7.59l-.77-.11q-1.19,7.45-3.93,10.39l-1-.89q2.66-2.85,3.54-9.1l1.1-7.84,5.56.78.37-2.67,1.21.17-.37,2.67,5.63.79a31.15,31.15,0,0,1-1.87,4.82l-1.15-.57a21.84,21.84,0,0,0,1.43-3.25l-4.21-.59-.68,4.83,4.51.63q-1.61,5.24-4.63,7.66A16.91,16.91,0,0,0,209.41,183.36Zm-6-12,.68-4.83-4.26-.6-.68,4.83Zm4.08,1.83-6.44-.91a12.75,12.75,0,0,0,2.65,6.66A12.57,12.57,0,0,0,207.44,173.19Z"/><path class="cls-2" d="M225.55,173.78l-3.63-.51-1.33,9.5c1.84-.25,3.06-.45,3.67-.6l-.14,1.31q-5.43,1-11.58,1.43l-.1-1.25c.56,0,1.35-.08,2.36-.18L217,167.7l1.23.17-2.16,15.43q1.63-.12,3.21-.36l2.5-17.85,1.25.18L222.1,172l3.63.51Zm8.26,7.5a19.66,19.66,0,0,1-1,4.06c-.4,1-.85,1.54-1.36,1.71a6.87,6.87,0,0,1-2.76,0c-1-.15-1.75-.27-2.18-.37a1.45,1.45,0,0,1-1-.78,2.21,2.21,0,0,1-.21-1.41L227.89,166l1.28.18-.94,6.73,5.91.83-.17,1.23-5.92-.83-1.49,10.68a.52.52,0,0,0,.29.61,17.24,17.24,0,0,0,2.67.49,3.87,3.87,0,0,0,1.28,0,1,1,0,0,0,.52-.36,6.92,6.92,0,0,0,.62-1.71,24.63,24.63,0,0,0,.65-3.06Z"/><path class="cls-2" d="M240.55,173.16a26.35,26.35,0,0,1-2.1,5.45l-1.1-.61a23.77,23.77,0,0,0,2-5.22Zm5,3.53-1,.82a20.51,20.51,0,0,0-1.92-3l-2,14.49-1.25-.18,2.89-20.64,1.26.17-.63,4.5A24.13,24.13,0,0,1,245.51,176.69ZM257.92,182l-7.8-1.09q-1.59,5.53-7.86,8.56l-.67-1.18c3.89-1.83,6.3-4.36,7.24-7.56L243,180l.17-1.26,6,.84a50,50,0,0,0,.93-5.12l-4.6-.65.17-1.27,4.63.65q.33-1.8.63-3.93l1.24.17c-.1.81-.31,2.12-.62,3.94l5.53.78-.9,6.41,1.9.27Zm-3-1.71.73-5.15-4.25-.6c-.55,3.28-.83,5-.86,5.14Zm2,10.15-1,.73a33.46,33.46,0,0,0-5.25-7.43l.93-.81A34.33,34.33,0,0,1,256.9,190.48Z"/><path class="cls-2" d="M268.23,188.65a37.31,37.31,0,0,1-7.67,2.71l-.65-1.22a36.52,36.52,0,0,0,7.67-2.5Zm13.09-.32L271.69,187l-.88,6.24-1.25-.17.87-6.24-9.7-1.37.18-1.26,9.7,1.36.21-1.52,1.26.18-.22,1.52,9.64,1.35Zm-13-5.26-1.08.4c-.06-.55-.12-1-.17-1.21l-5.45-.06-.1-1.15a24.86,24.86,0,0,0,4.29-3.67l-3.28,0-.08-1a25.06,25.06,0,0,0,4.1-5l1,.56a34.89,34.89,0,0,1-3.48,4.41l2.73.08c.64-.7,1.18-1.32,1.6-1.85l.94.71a38.27,38.27,0,0,1-6.15,6l3.58.06a7.51,7.51,0,0,0-.36-1.45l1-.4A15.94,15.94,0,0,1,268.32,183.07Zm6.13.83-5.65-.79,1.27-9.1,1.64.23a14.35,14.35,0,0,0,1.43-2.13l1.16.44a12.55,12.55,0,0,1-1.28,1.87l2.71.38Zm-1.05-1.28.42-3-3.28-.46-.43,3Zm.59-4.19.36-2.61-3.28-.46L270.7,178Zm6.83,14.65-1,.81a42.82,42.82,0,0,0-6.4-4.46l.91-.84A47.53,47.53,0,0,1,280.82,193.08ZM282,185l-1.08.48c0-.25-.1-.67-.2-1.26l-5.44-.14-.12-1.08a22.36,22.36,0,0,0,4.22-3.77l-3.4-.14-.09-1a22,22,0,0,0,3.9-4.93l1,.56a27.15,27.15,0,0,1-3.24,4.29l2.72.1c.41-.47.88-1.08,1.42-1.81l1,.63A35.41,35.41,0,0,1,277,183l3.48.09a9,9,0,0,0-.46-1.61l1.05-.36A16.63,16.63,0,0,1,282,185Z"/><path class="cls-2" d="M292,192.54a25.33,25.33,0,0,1-7.24,2.64L284,194a21.51,21.51,0,0,0,7.09-2.36Zm13-.1-20.63-2.89.17-1.21,1.78.25,1.65-12.37a21.14,21.14,0,0,0,5-1.07l.44,1.15a28.89,28.89,0,0,1-4.33,1c-.17,1-.3,1.94-.38,2.72l3.61.51-.17,1.17-3.58-.5c-.12,1.06-.26,2.1-.44,3.11l3.43.48-.17,1.22-3.38-.48-.45,3.21,14.69,2.06c.31-1.85.48-2.92.53-3.23l-3.27-.46.17-1.18,3.28.46c.09-.5.24-1.54.46-3.11l-3.28-.46.17-1.19,3.28.46c.14-.65.26-1.32.36-2,0-.39.1-.76.13-1.09l-3.23-.45.16-1.16,4.5.63q-1.47,9.36-2.07,13l1.78.25Zm-10.34-9a13.09,13.09,0,0,1-2.84,5.4l-.91-.94a10.17,10.17,0,0,0,2.65-4.9Zm4.93-4.57-4.09-.57c-.26.92-.51,1.75-.74,2.46l4.33.61q-1.05,6.33-1.74,7.21a2.06,2.06,0,0,1-2.08.69c-.49-.07-.82-.12-1-.16L294,187.8c.56.11,1,.19,1.31.23a1.09,1.09,0,0,0,1.28-.57,36,36,0,0,0,1.12-5.12l-4.6-.65c.46-1.32,1.1-3.46,1.94-6.41l1.14.28c-.13.5-.27,1-.43,1.59l3.94.56Zm4.53,18-1,.73a37.61,37.61,0,0,0-6.05-4.27l1-.77A39.45,39.45,0,0,1,304.07,196.83Z"/><path class="cls-2" d="M328.3,200.13l-.76,1.09a37.2,37.2,0,0,1-9.43-3.82,49.67,49.67,0,0,1-10,1l-.51-1.13a53.63,53.63,0,0,0,9.24-.86,30.24,30.24,0,0,1-3.45-3c-1.62.55-3,.94-4,1.19l-.62-1.08c.87-.2,2.12-.55,3.76-1.06q-.49-.6-.84-1.11l.91-.67,1.18,1.33a23.91,23.91,0,0,0,3.31-1.67,4.46,4.46,0,0,0-.52-.12c-1-.2-1.42-.75-1.29-1.64l.4-2.9,1.2.17-.38,2.71a.38.38,0,0,0,.19.42,11.44,11.44,0,0,0,2.21.42,21.52,21.52,0,0,0,3.22.31c.44,0,.73-.57.88-1.62l1.12.74c-.35,1.55-1.07,2.25-2.17,2.1-.65-.09-1.68-.21-3.1-.34a21.85,21.85,0,0,1-2.21,1.4l8.87,1.25-.16,1.12a24.75,24.75,0,0,1-5.49,2.55A37.17,37.17,0,0,0,328.3,200.13Zm-14-13.6a16.47,16.47,0,0,1-4,3.77l-.74-1a14.84,14.84,0,0,0,3.78-3.61Zm15,2.68L328,189l.35-2.45-17.17-2.4-.34,2.44-1.23-.17.51-3.61,19.6,2.75Zm.09-8a75.07,75.07,0,0,1-15.41-.73l-2.23-.34-.4-1.31q1.81.33,3.57.57a70.87,70.87,0,0,0,14.05.66Zm-13.27,1.46-1.17.42a16.6,16.6,0,0,0-1.37-1.79l1.12-.45A11.07,11.07,0,0,1,316.07,182.64Zm7.24,11.47-8.51-1.2-.16.07a25.89,25.89,0,0,0,3.73,3.07A22.42,22.42,0,0,0,323.31,194.11Zm-2-5.86-1.05.6a10,10,0,0,0-1.59-2.35l1-.62A11.77,11.77,0,0,1,321.31,188.25Zm.63-5-1.11.51a14.61,14.61,0,0,0-1.09-1.79l1.09-.51A11.26,11.26,0,0,1,321.94,183.28Zm6.25,8.53-1.11.47a29.13,29.13,0,0,0-2.16-4.52l1.1-.55A30,30,0,0,1,328.19,191.81Zm.21-9.24a18.63,18.63,0,0,1-2.16,2.05l-1-.79a14.21,14.21,0,0,0,2.13-2Z"/><path class="cls-2" d="M341.89,199.47a1.3,1.3,0,0,1,.92.53,1.34,1.34,0,0,1,.25,1,1.37,1.37,0,0,1-1.55,1.17,1.37,1.37,0,0,1-.91-.54,1.35,1.35,0,0,1-.26-1,1.37,1.37,0,0,1,.54-.92A1.35,1.35,0,0,1,341.89,199.47Zm3.18-15.4-2,12.87-1.6-.22,1.6-12.94Z"/></g></g></svg>