<svg xmlns="http://www.w3.org/2000/svg" viewBox="0 0 227.78 438.14"><defs><style>.cls-1{fill:#b2b3b3;}</style></defs><g id="圖層_2" data-name="圖層 2"><g id="圖層_4" data-name="圖層 4"><path class="cls-1" d="M214.36,298.82c11-37.55,18.09-103.88,7.13-127.18s-10.69-51-10.69-51c24-26.1,15.69-49.32,15.15-52.11s-5.32-13.35-8.76-15.37-14.89-6.53-14.89-6.53c-4.38-4.66-5.48-5.76-5.48-5.76-9.32-11.51-23.85-14-23.85-14C170.23,16.22,171.05-1,161.46.05S145.84,31.3,145.84,31.3s-32.62,11.78-36.46,11.24S63.47,19.92,61,19.92s-17.27-7-11.92,13.57,29.43,58,29.43,58S88.58,115.53,97.59,124c4.11,3.83-12.41,39.83-20.72,53.45C70.2,188.32,63.77,195,58.28,203c5.14-20.36,7.65-50.39-8.6-79.56-7.1-12.73-25-32.83-26.35-33.49s-8.7-5.06-13-.28-2,11.65.3,14.18,16.49,17.8,22.6,28.76c13.46,24.16,11,49.54,6.59,66.58-5.83,22.43-17.38,40.21-25.5,48.62C3.89,258.61-1.12,273.14.21,288.72,1.77,307,12,324.68,27.68,336.13a87.22,87.22,0,0,0,18.11,10.22c5.2,9.07,20.26,27.43,59.62,36.21,6.16,5.76,12.33,14.81,18.91,14,0,0,2.88,6.69,12.33.06,0,0,8.64-7.05,3.29-14.45a51.36,51.36,0,0,0,12.75-4.93s8.22,17.27,0,35.77c-3.7,8-1.33,17.71,3.65,20.47-.16,2.55,12.59,11.19,21.43-4.44,2.67-1.43,10.28-18.91,4.52-21.58,3.29-4.73-1.51-35-6.58-46.46,2.88,0,7.61-3.29,7.61-3.29s2.47,41.32,7,40.91c.41,4.11,12.13,19.12,17.88,14,1,3.7,15-1,12.34-5.55,6.58-4.94.69-22.83-5.55-23.64-9.46-1.24-8.3-17.41-6.79-39.48S210.14,313.27,214.36,298.82ZM19,287.12c-.87-10.09,2.29-19.4,8.88-26.22a114.72,114.72,0,0,0,17.45-24.65c-3,16.49-4.34,40.13-3.19,76.91l.53,10.39c-1.3-.82-2.59-1.69-3.84-2.61C27.49,312.65,20.08,300,19,287.12Z"/></g></g></svg>