<svg xmlns="http://www.w3.org/2000/svg" viewBox="0 0 159.68 161.24"><defs><style>.cls-1{fill:#f0bd0c;}</style></defs><g id="圖層_2" data-name="圖層 2"><g id="圖層_1-2" data-name="圖層 1"><path class="cls-1" d="M54.91,3.22C9.15,33.73-4.8,102.32,3.06,138.08c2.45,11.18,7,17.84,12.86,18.76,1.56.24,5.57.46,11.9.66a2.61,2.61,0,0,0,1.46.77l.31,0a3.25,3.25,0,0,0,1.83-.69c8,.21,18.06.35,28.29.4a3.49,3.49,0,0,0,2.51,2.23h.29c1.19,0,2.34-.92,3.38-2.22h2.46c14.26,0,35.34-.18,37.51-1.27.24-.12.62-.27,1.1-.47a37,37,0,0,0,12.72-8.11,22.84,22.84,0,0,0,5.2.58c5.67,0,14.32-2,20.29-12.76,6.57-11.84,1.22-23.43-2.68-31.9-1.68-3.62-3.12-6.75-3-8.75.12-2.59,2.06-2.79,6.81-2.65,2.52.08,5.37.15,7.7-.75,3.5-1.37,4.47-3.41,4.67-4.89.4-2.94-1.78-6.29-6.31-9.69A10.23,10.23,0,0,0,142.37,76c-5.93,2.11-10.7,8.25-11.88,13-.56,2.21.31,6.58,1.42,12.11,2.67,13.44,6.64,33.43-6.66,38.88.21-.48.43-1,.63-1.45,4.31-11.26,2.09-26.17-6.63-44.33-4.51-9.41-7.2-37.19.08-84.52l.33-2.14-1.77,1.24a128.69,128.69,0,0,0-14,11l0,0c-19.5-5.14-40-4.69-49.13-4.13L56.63,2.07,54.91,3.22m88.64,131.87c-7.28,13.11-18.5,12.28-22.45,11.51a27.37,27.37,0,0,0,3-4.23c17-4.86,12.58-27,9.66-41.62-1-5.09-1.89-9.49-1.44-11.3,1-4.16,5.43-9.81,10.71-11.68a8.31,8.31,0,0,1,8.22,1.08c3.85,2.88,5.88,5.78,5.58,8-.24,1.78-2,2.84-3.51,3.41-2,.77-4.51.7-7,.63-4-.11-8.5-.24-8.71,4.41-.11,2.45,1.35,5.62,3.2,9.62,3.74,8.11,8.87,19.2,2.75,30.22M4.87,137.68C-2.78,102.89,10.5,36.56,54.21,6L52.8,15.77c-1.89.15-3,.27-3,.27a.94.94,0,0,0-.82,1,.92.92,0,0,0,1,.81l4.32-.35c8.58-.56,28.68-1.13,48,3.77C99.25,24.46,99,25.85,99,26.23a.93.93,0,0,0,1.86,0c0-.06.87-3.61,16.35-14.67C110.24,58,113,85.51,117.58,95c8.49,17.68,10.7,32.1,6.57,42.86C119.89,149,110,153,106.26,154.57c-.54.21-1,.39-1.23.52-1.22.56-13.46,1.09-37.85,1.08a40.47,40.47,0,0,0,3-6.41.93.93,0,0,0-1.74-.65,34.23,34.23,0,0,1-3.63,7.3,1,1,0,0,0-.24.34c-.81,1.09-1.56,1.73-2.13,1.64-.16,0-.69-.22-1.28-1.61,0,0,0-.08,0-.11a28.34,28.34,0,0,1-1.49-7.33.92.92,0,1,0-1.84.19A36.79,36.79,0,0,0,59,156.14c-9.23,0-18.25-.17-25.76-.35A37.62,37.62,0,0,0,37.76,147a.92.92,0,1,0-1.73-.65c-1.86,4.95-4.85,10.11-6.4,10.11h-.1A1,1,0,0,1,29,156l-.09-.11c-.65-.85-1.57-3.16-2.07-9.34a1,1,0,0,0-1-.84.92.92,0,0,0-.85,1,30.62,30.62,0,0,0,1.67,8.87c-6.84-.22-9.45-.44-10.42-.59-5-.79-9.06-6.95-11.34-17.33"/><path class="cls-1" d="M62.51,161.24a3,3,0,0,1-.42,0,4.11,4.11,0,0,1-3-2.22c-9.88-.06-19.58-.19-27.41-.39a3.78,3.78,0,0,1-2.57.65,3.56,3.56,0,0,1-1.72-.77c-6.26-.2-10.07-.42-11.65-.66-6.28-1-11.14-7.93-13.69-19.54-7.91-36,6.15-105.15,52.27-135.9L57.94,0,55.86,14.58c3.19-.18,6.5-.26,9.84-.26,9.63,0,24,.76,37.89,4.35A136.25,136.25,0,0,1,117.31,8l3.7-2.6-.69,4.47c-7.24,47.1-4.62,74.65-.17,83.93,8.57,17.85,10.94,32.67,7,44.05,9.7-6.53,6.15-24.41,3.73-36.52-1.12-5.66-2-10.12-1.4-12.56,1.24-5,6.27-11.45,12.52-13.67a11.23,11.23,0,0,1,10.88,1.48c4.84,3.63,7.16,7.3,6.7,10.62-.24,1.75-1.35,4.15-5.3,5.69a16.43,16.43,0,0,1-5.9.86c-.75,0-1.48,0-2.19,0l-1.84,0c-3.68,0-3.89.62-3.94,1.72-.07,1.76,1.39,4.93,2.94,8.29,4,8.67,9.47,20.53,2.65,32.81-6.09,11-14.87,13.27-21.16,13.27a24.22,24.22,0,0,1-4.88-.49,38.37,38.37,0,0,1-12.66,7.94l-.15.07c-.38.15-.68.27-.87.37-.69.35-2.76,1.38-38,1.38h-2C65.07,160.52,63.8,161.24,62.51,161.24Zm-3.79-13.73a1.92,1.92,0,0,1,1.91,1.72,28.37,28.37,0,0,0,1.42,7.06,1.08,1.08,0,0,1,.07.18,3.1,3.1,0,0,0,.52.88,4.4,4.4,0,0,0,1.07-1.11,2.62,2.62,0,0,1,.34-.48,33.93,33.93,0,0,0,3.46-7A2,2,0,0,1,70,147.63a1.93,1.93,0,0,1,1.08,1,1.9,1.9,0,0,1,.05,1.48,44,44,0,0,1-2.23,5.06c26.15,0,34.82-.66,35.75-1,.23-.12.67-.3,1.24-.53,3.62-1.49,13.23-5.44,17.33-16.13,4-10.49,1.83-24.64-6.53-42.07-4.51-9.4-7.37-36.37-.84-81.68-11.86,8.67-13.79,12.15-14,12.68A1.93,1.93,0,0,1,98,26.23c0-.73.46-2.06,2.47-4.36a155.3,155.3,0,0,0-34.73-3.7c-4.85,0-8.85.19-11.35.36l-4.28.35h-.21a1.93,1.93,0,0,1-.22-3.84c.09,0,.92-.1,2.29-.21l1-6.71c-41.82,30.93-54.44,95.68-47,129.33C8,147.42,11.77,153.3,16.37,154c.84.13,3.07.33,8.83.53A39.91,39.91,0,0,1,24,146.81a1.93,1.93,0,0,1,1.77-2.07h.13a2,2,0,0,1,1.94,1.77c.51,6.26,1.45,8.22,1.85,8.79a.58.58,0,0,1,.1.12c.86-.44,3.39-4.24,5.34-9.43a2,2,0,0,1,2.49-1.12,1.88,1.88,0,0,1,1.07,1,2,2,0,0,1,.05,1.48,44.73,44.73,0,0,1-3.6,7.49c6.78.15,14.68.26,22.58.3a43.38,43.38,0,0,1-.88-5.49,1.94,1.94,0,0,1,1.71-2.12ZM123,145.86c.61.06,1.31.11,2.07.11,5.17,0,12.42-2,17.64-11.37,5.87-10.57.88-21.4-2.77-29.31-1.91-4.13-3.42-7.39-3.3-10.08.24-5.41,5.56-5.41,7.82-5.41.64,0,1.28,0,1.91,0s1.43,0,2.13,0a13,13,0,0,0,4.46-.6c1.22-.48,2.71-1.32,2.88-2.62.24-1.74-1.75-4.43-5.19-7a7.37,7.37,0,0,0-7.29-.94c-5,1.76-9.09,7.07-10.07,11-.39,1.59.5,6.09,1.45,10.86,3,14.89,7.43,37.33-10,42.66A28.3,28.3,0,0,1,123,145.86Z"/><path class="cls-1" d="M73.5,36.42a.92.92,0,0,1,.86,1c-.91,14.18,1,15.37,1.42,15.46C77.7,53.38,82.63,45,86.07,37a.93.93,0,1,1,1.7.73c-1.75,4.09-7.63,17-11.94,17a2,2,0,0,1-.48,0c-1.81-.43-3.77-2.8-2.84-17.4a.91.91,0,0,1,1-.86"/><path class="cls-1" d="M75.83,55.73a3.38,3.38,0,0,1-.72-.08c-2.44-.58-4.57-3.22-3.6-18.43a1.93,1.93,0,0,1,1.89-1.81l.21,0a1.92,1.92,0,0,1,1.75,2c-.72,11.3.41,13.9.74,14.4,1.23-.51,5.29-6.5,9.05-15.28a2,2,0,0,1,2.53-1,1.9,1.9,0,0,1,1,1.05,1.92,1.92,0,0,1,0,1.47C85.88,44.69,80.46,55.73,75.83,55.73Z"/><path class="cls-1" d="M42.84,50.15A2.36,2.36,0,0,1,42,50c-2.4-.83-3-4.77-2-12.79a.92.92,0,0,1,1-.81.94.94,0,0,1,.81,1c-1.18,9.61.47,10.69.81,10.81,2,.72,7.81-6.34,12-13.26a.92.92,0,0,1,1.27-.31A.93.93,0,0,1,56.22,36c-2.09,3.46-8.93,14.18-13.38,14.18"/><path class="cls-1" d="M42.84,51.15A3.27,3.27,0,0,1,41.71,51c-3-1-3.77-5.16-2.71-13.85a1.92,1.92,0,0,1,3.43-1,2,2,0,0,1,.39,1.42c-.92,7.54,0,9.4.21,9.74,1.36-.17,6-5,10.74-12.83a2,2,0,0,1,2.65-.65A1.91,1.91,0,0,1,57.29,35a1.87,1.87,0,0,1-.22,1.46C53.76,42,47.52,51.15,42.84,51.15Z"/><path class="cls-1" d="M41,62.62a.94.94,0,0,1,.25,1.29c-1.83,2.71-2.44,5.37-1.47,6.46.48.56,2.76,2,11.52-2.36l.71-.35.46.64c3,4.26,7.52,6.23,12,5.3C67.36,73,69.53,71.2,70,69s-.95-4.68-4-6.86a.93.93,0,0,1,1.08-1.51c5,3.55,5.08,7,4.72,8.75-.61,2.88-3.34,5.23-7,6a12.62,12.62,0,0,1-2.44.24,13.84,13.84,0,0,1-11-5.65c-6.73,3.26-11.12,3.79-13.06,1.59s-.56-5.93,1.33-8.73A.93.93,0,0,1,41,62.62"/><path class="cls-1" d="M62.4,76.66a14.61,14.61,0,0,1-11.24-5.41c-3.85,1.8-6.88,2.68-9.24,2.68a5.44,5.44,0,0,1-4.29-1.67c-2.27-2.6-.84-6.85,1.25-10a2,2,0,0,1,2.69-.51,1.92,1.92,0,0,1,.51,2.66c-1.75,2.59-2,4.72-1.55,5.25,0,0,1.51,1.82,10.33-2.59l1.47-.74,1,1.34c2.76,3.87,6.93,5.74,11,4.9,2.51-.52,4.37-2,4.75-3.79s-.89-3.91-3.59-5.83A1.94,1.94,0,0,1,65,60.31a2,2,0,0,1,2.69-.45c5.42,3.88,5.53,7.78,5.12,9.77-.69,3.27-3.72,5.92-7.73,6.76A13,13,0,0,1,62.4,76.66Z"/><path class="cls-1" d="M52.64,64.21s-3.7-3.71-1.85-3.71c2.62,0,5.37.19,6.28.93,1.13.93-4.43,2.78-4.43,2.78"/><path class="cls-1" d="M52.37,65.35l-.43-.43c-3.15-3.15-2.72-4.18-2.56-4.57a1.4,1.4,0,0,1,1.41-.85c4.88,0,6.26.62,6.91,1.16A1.32,1.32,0,0,1,58.2,62c-.07.39-.29,1.56-5.24,3.21Zm-.72-3.84a14.58,14.58,0,0,0,1.27,1.54,20.15,20.15,0,0,0,2.69-1.17A19.64,19.64,0,0,0,51.65,61.51Z"/></g></g></svg>