<svg xmlns="http://www.w3.org/2000/svg" viewBox="0 0 139.39 180.14"><defs><style>.cls-1{fill:#f0bd0c;}</style></defs><g id="圖層_2" data-name="圖層 2"><g id="圖層_1-2" data-name="圖層 1"><path class="cls-1" d="M8.81,89.62c-14.35,54.21-9,79,.76,84.2,5,2.66,34.54,6.32,59.9,6.32,17,0,32.18-1.65,36.87-6.34,8.84-8.84,8.89-43.56,8.25-75.4-.08-4-.15-7.41-.15-9.92,0-2.06.12-4.57.25-7.48.49-10.5,1.17-25.58-2.84-38.79l2.65-2.32a31.47,31.47,0,0,0,6.58,7.71c3,2.48,6.1,3.73,9,3.73a10,10,0,0,0,5-1.35c3.64-2.08,4.34-5,4.28-7.06-.31-10.91-21.2-25.51-22.73-26.27-3.21-1.6-8.58,4.28-12.92,10.16C98.92,21.18,92.13,16.89,82.58,15c-9-1.8-17.17-1.63-24.57.48-2.09-2.21-2.26-4.5-2.4-6.9s-.32-5.27-3.12-7.14c-4.17-2.77-24.07-1.69-31.21,5-2.44,2.3-4.63,6.29-1.17,12.2A8.92,8.92,0,0,0,28,23.48c4.6,0,9.7-3.11,13.63-6.17l1.24,5.94a56.12,56.12,0,0,0-7,6.57C25,42.06,16.36,61.06,8.81,89.62M52.55,8.74c.14,2.3.34,5.06,2.33,7.74a42.82,42.82,0,0,0-9.26,4.78l-1.29-6.17c2.2-1.94,3.68-3.51,3.84-3.69a1.53,1.53,0,1,0-2.25-2.08C42.87,12.63,33.6,21.05,27.33,20.37a5.91,5.91,0,0,1-4.58-3.25c-2-3.45-1.81-6.13.64-8.43C29.87,2.58,48.23,2.27,50.79,4c1.46,1,1.61,2.3,1.76,4.76m58.24,30.33a42.31,42.31,0,0,0-5.08-9.76c3.94-5.38,8.32-9.89,9.68-9.89h0c2.66,1.35,20.7,15.33,20.92,23.59.06,1.85-.81,3.22-2.73,4.31-3.9,2.24-7.9.1-10.56-2.08-5.69-4.67-9.3-12.58-8.67-14.49a1.53,1.53,0,1,0-2.9-1c-.56,1.67.1,4.41,1.53,7.36ZM11,171.11c-6.71-3.54-14.11-24.53.77-80.71C20.55,57.23,31.24,36,45.23,25.25a1.52,1.52,0,0,0,.53-.4,40,40,0,0,1,11.87-6.14,1.53,1.53,0,0,0,.71-.23,42.53,42.53,0,0,1,12.18-1.7A58.51,58.51,0,0,1,82,18c32.25,6.45,30.56,43.15,29.65,62.86-.14,3-.25,5.5-.25,7.63,0,2.52.07,6,.15,10,.42,20.94,1.3,64.52-7.36,73.18-9.58,9.57-83.63,4.5-93.17-.53"/><path class="cls-1" d="M89.93,46.35c2.12,0,3.83,2.06,3.83,4.6s-1.71,4.59-3.83,4.59-3.82-2-3.82-4.59,1.71-4.6,3.82-4.6"/><path class="cls-1" d="M48,41.25c-1.88-1-2.47-3.58-1.3-5.84s3.62-3.3,5.5-2.33,2.47,3.58,1.31,5.83S49.89,42.22,48,41.25"/><path class="cls-1" d="M48.29,63.65c-1,3.73-3.56,15,.36,22.2a11.17,11.17,0,0,0,7.19,5.63,12.68,12.68,0,0,0,3.33.47,10.9,10.9,0,0,0,6-1.79c6.16-3.94,8.84-13.39,9.67-17.07.43,0,.87.07,1.33.07,4.68,0,8.56-5.16,9.23-12.27.75-8-2.9-18.27-15.67-20.69A22,22,0,0,0,45.46,51.88c-2,4.29-1.79,8.2.61,10.2a16.08,16.08,0,0,0,2.22,1.57m34-3c-.5,5.32-3.22,9.48-6.18,9.48-5.54,0-6.59-3.64-7.7-7.5-.76-2.64-1.55-5.36-4.07-6.2S59.77,57.37,58,59c-2.79,2.51-5.2,4.68-9.93.73-1.24-1-1.16-3.66.2-6.54a18.67,18.67,0,0,1,15-10.25,3.55,3.55,0,0,0-1.47,2.3c-.36,2.5,2.38,5,6.13,5.51s7.07-1,7.43-3.54a3.32,3.32,0,0,0-.27-1.83c6,3.51,7.78,9.93,7.28,15.23m-31,23.77A14.88,14.88,0,0,1,49.78,79c3.25-1,11.23-2.6,17.72,4.37a13.83,13.83,0,0,1-4,4.24,8.75,8.75,0,0,1-12.15-3.21"/><path class="cls-1" d="M73.91,98.63a8,8,0,0,1,5.58,4c5.45,9.2-1.58,31.32-1.88,32.26a1.51,1.51,0,0,1-1.93,1,1.53,1.53,0,0,1-1-1.92c1.94-6,6.11-23.11,2.17-29.77a5.05,5.05,0,0,0-3.53-2.55c-7.66-1.48-10.54,3.38-11.25,4.9-1.43,3.1-.91,6.59,1.24,8.31,6.24,5,11.1-.64,11.63-1.29a1.53,1.53,0,0,1,2.4,1.91,13.93,13.93,0,0,1-4.58,3.5,10.38,10.38,0,0,1-4.28,1v5.28a1.53,1.53,0,0,1-3.06,0v-5.77a12.46,12.46,0,0,1-4-2.23c-3.29-2.63-4.15-7.56-2.11-12,1.94-4.2,6.79-8.14,14.61-6.63"/><path class="cls-1" d="M38.28,90.07a11.22,11.22,0,0,1,7.34,6.16c5.14,10.66-2.94,30.3-3.29,31.13a1.52,1.52,0,0,1-1.41.94,1.56,1.56,0,0,1-.59-.12,1.52,1.52,0,0,1-.82-2c.08-.19,7.89-19.2,3.35-28.62A8.2,8.2,0,0,0,37.44,93c-5-1.43-8.4,2.72-9.76,6.71-1.27,3.73-.78,7.25,1.13,8,7.89,3.14,10.43-2.35,10.69-3a1.53,1.53,0,1,1,2.84,1.14,10,10,0,0,1-9,5.86l-.84,5.61a1.54,1.54,0,0,1-1.52,1.3h-.22a1.53,1.53,0,0,1-1.29-1.74l.83-5.53a18.14,18.14,0,0,1-2.6-.8c-4-1.6-4.49-7.17-2.9-11.85,1.94-5.68,6.88-10.56,13.5-8.66"/></g></g></svg>