<svg xmlns="http://www.w3.org/2000/svg" viewBox="0 0 23.15 21.86"><defs><style>.cls-1{fill:#dc8b40;}</style></defs><g id="圖層_2" data-name="圖層 2"><g id="圖層_1-2" data-name="圖層 1"><path class="cls-1" d="M4.65,11.69c.78,1.94.47,3.9-.7,4.37S1.21,15.33.43,13.38,0,9.48,1.13,9s2.74.73,3.52,2.67"/><path class="cls-1" d="M9,5.23c.78,1.94.46,3.9-.7,4.37S5.5,8.87,4.72,6.92,4.26,3,5.43,2.56,8.17,3.29,9,5.23"/><path class="cls-1" d="M15.08,2.77c.78,1.95.47,3.9-.7,4.37s-2.74-.73-3.52-2.67-.47-3.9.7-4.37,2.74.73,3.52,2.67"/><path class="cls-1" d="M22.72,5.43c.78,2,.47,3.9-.7,4.37s-2.74-.73-3.52-2.68-.46-3.9.7-4.36,2.75.73,3.52,2.67"/><path class="cls-1" d="M11.34,9.41c-4.38,1.75-6.89,5.78-5.6,9S11.62,22.8,16,21s6.89-5.78,5.61-9-5.89-4.4-10.27-2.64"/></g></g></svg>